<?xml version="1.0" encoding="UTF-8"?>
<!DOCTYPE svg PUBLIC "-//W3C//DTD SVG 1.1//EN" "http://www.w3.org/Graphics/SVG/1.1/DTD/svg11.dtd">
<!-- Creator: CorelDRAW (Versión de evaluación) -->
<svg xmlns="http://www.w3.org/2000/svg" xml:space="preserve" width="53mm" height="42mm" version="1.1" style="shape-rendering:geometricPrecision; text-rendering:geometricPrecision; image-rendering:optimizeQuality; fill-rule:evenodd; clip-rule:evenodd"
viewBox="0 0 5300 4200"
 xmlns:xlink="http://www.w3.org/1999/xlink"
 xmlns:xodm="http://www.corel.com/coreldraw/odm/2003">
 <defs>
  <style type="text/css">
   <![CDATA[
    .str0 {stroke:#A9A9AA;stroke-width:7.62;stroke-miterlimit:22.9256}
    .fil1 {fill:#221C23}
    .fil4 {fill:#341329}
    .fil7 {fill:#A9A9AA}
    .fil5 {fill:#B63868}
    .fil6 {fill:#C93876}
    .fil3 {fill:#E7E9B7}
    .fil2 {fill:#EA2979}
    .fil0 {fill:white}
   ]]>
  </style>
 </defs>
 <g id="Capa_x0020_1">
  <metadata id="CorelCorpID_0Corel-Layer"/>
  <g id="_1507687316544">
   <path class="fil0" d="M1960.92 2388.03c-22.57,17.18 -26.58,17.92 -59.4,15.11 -72.76,-71.61 25.2,-117.33 59.4,-15.11zm1278.04 -5.07c-2.51,-29.36 -13.37,-63.25 60.63,-71.09 15.02,28.73 27.63,31.23 40.65,61.7 -43.93,22.91 -61.41,41.99 -101.28,9.39zm-618.8 187.8c-54.59,25.38 -40.08,90.71 -43.14,163.94 -2.86,68.43 -6.45,137.93 1.1,204.72 35.59,1.07 247.52,-76.5 281.92,-109.43 62.85,-60.17 201.57,-283.35 201.82,-323.15 0.32,-50.64 -19.73,-55.38 8.56,-109.09 203.71,-42.55 51.02,147.6 1.33,237.24 -23.31,42.04 -99.57,171.87 -137.07,201.77 -2.98,79.66 -56.51,568.3 -72.84,630.12 -187.14,11.89 -226.28,17.92 -409.63,8.46l-111.22 -6.13c-47.94,-5.35 -38.73,-27.23 -51.89,-150.06 -5.53,-51.53 -12.13,-98 -18.17,-151.41 -9.92,-87.74 -33.62,-215.79 -34.36,-297.57 -0.76,-85.23 -64.01,-49.64 -113.81,-203.61 -55.91,-172.86 -133.62,-176.23 -142.16,-194.84 -5.95,-45.9 -0.82,-66.39 30.99,-89.51 120.03,-17.94 73.17,71.68 105.36,145.77 29.2,67.19 95.68,196.58 143.69,246.24l62.28 64.57c22.05,19.66 152.58,65.99 192.5,77.79 -3.17,-61.2 -6.42,-111.42 -1.86,-173.24 15.35,-208.12 70.03,-116.06 -109.84,-247.9 -173.96,-127.52 -208.77,-307.6 -4.71,-400.08 80.68,-36.68 174,-47.29 270.4,-27.15 100.14,20.93 163.11,40.7 195.09,127.15 73.12,197.7 -134.44,306.68 -244.34,375.4zm585.23 -378.87c20.57,22.15 34.52,48.03 30.39,83.64 -1.08,0.45 -23.35,10.95 -23.95,11.1 -15.74,3.84 4.05,2.25 -15.03,2.81 -31.63,0.94 -46.71,-20.14 -27.86,-55.67 8.28,-15.62 2.28,-4.31 15.44,-19.41 1.64,-1.88 6.41,-7.14 8.03,-8.89l12.98 -13.58zm-1370.97 20.6c15.02,16.94 15.27,13.52 26.78,40.07 -14.31,24.59 -30.19,39.02 -52.81,48.44 -20.52,-19.28 -28.75,-32.68 -36.55,-59.66 24.67,-15.12 26.18,-26.44 62.58,-28.85zm218.59 23.14l-30.75 18.97c-23.45,8.09 -18.98,5.81 -42.57,4.25 -12.65,-21.32 -11.34,-13.96 -15.67,-40.15 12.26,-26.02 13.37,-28.77 50.34,-38.55l38.65 55.48zm1257.61 -30.33c20.13,-12.4 51.33,-18.58 74.78,-14.05 -2.06,32.11 -20.76,75.18 -44.76,100.35l-29.21 -7.11 -0.81 -79.19zm-1014.91 -703.63c340.23,-54.14 465.85,418.41 108.77,577 -173.21,76.93 -290.6,-58.05 -304.01,-217.01 -14.04,-166.4 47.52,-336.48 195.24,-359.99zm579.99 2.37c105.97,-17.49 302.45,94.14 280.95,274.72 -10.69,89.86 -43.7,248.56 -125.67,299.32 -97.63,60.46 -251.21,23.98 -329.49,-32.87 -55.27,-40.12 -75.04,-119.79 -66.22,-216.21 14.72,-161.01 69.39,-296.73 240.43,-324.96zm-925.92 -122.08l-132.43 125.58c-95.44,106.04 -256.4,367.78 -269.07,492.29 34.44,18.68 62.06,33.47 100.66,56.31 29.74,17.59 76.36,29.89 79.36,65.53 -40.52,8.26 -69.81,-25.86 -99.67,-44.63 -31.8,-19.98 -58.45,-35.88 -94.28,-55.3l-5.82 21.33 -46.06 180.44c59.95,8.8 87.11,10.47 95.08,46.29l-99.81 -16.36 -0.12 157.88 129 25.25c-61.15,76.72 -143.07,-75.89 -127.46,95.58 16.52,181.47 31.33,256.11 96.61,435.56 45.38,124.75 179.64,323.49 274.81,419.4l118.83 109.89c41.5,35.9 137,92.82 188.4,116.44 323.68,148.73 670.95,152.95 985.3,-17.9 84.73,-46.05 199.87,-124.78 264.09,-193.04 28.05,-29.82 47.96,-44.98 75.04,-77.83 75.79,-91.96 132.08,-152.02 191.11,-273.81 56.53,-116.65 211.46,-533.69 150.56,-595.64 -49.73,-31.04 -136.45,16.19 -186.13,-7.92 24.55,-50.62 141.22,-33.82 199.84,-35.67l-17.04 -207.7c-52.39,-8.22 -159.55,97.94 -225.58,109.07 17.9,-56.25 48.72,-60.43 100.14,-87.26 151.78,-79.18 114.65,-49.26 77.15,-237.04 -58.53,26.82 -205.2,180.23 -254.53,188.68 24.35,-74.73 176.14,-178.91 248.07,-218.27 -11.52,-49.22 -108.08,-249.08 -135.79,-292.02 -65.57,-101.57 -74.39,-103.16 -140.6,-180.99 -113.11,-132.98 -265.11,-237.33 -434.04,-302.98 -140.69,-54.68 -73.74,-14.9 -145.55,-9.1 -21.91,-38.41 -17.4,-112.47 -60.06,-136.46 -61,29.52 -73.7,125.22 -132.55,119.94 -12.35,-61.12 57.63,-99.65 52.55,-154.05 -49.76,-4.58 -97.46,40.9 -131.38,63.86 -36.25,24.53 -90.29,66.07 -132.19,73.49 10.12,-93.56 97.53,-152.11 111.79,-233.87 -32.33,3.81 -19.78,4.43 -42.93,29.08 -31.65,33.71 -223.18,176.96 -272.06,228.09 -25.95,27.14 -49.1,43.43 -89.65,54.41 -97.82,26.47 -173.45,120.74 -263.59,163.45z"/>
   <path class="fil0" d="M1423.57 2417.35l16.49 -172.04c-160.11,-6.76 -193.39,-14.14 -324.8,40.34 9.29,-104.23 280.51,-68.43 334.55,-76.66l2.25 -49.26c-136.61,-3.22 -176.52,22.72 -332.92,-72.69 -74.39,-45.39 -145.69,-120.22 -182.12,-224.64 -142.76,-409.08 182.5,-945.81 626.01,-944.56 104.53,0.29 257.75,39.59 309.98,93.43 55.12,56.81 101.01,101.44 132.42,172.3 17.93,40.43 15.95,57.02 31.56,78.43 80.98,-38.16 35.09,-37.84 153.05,-84.09 58.83,-23.06 111.87,-64.09 135.71,-110.68 6.1,-43.31 -114.36,-239.29 -177.21,-306.42 -21.01,-22.45 -55.61,-56.11 -83.37,-77.2 -288.39,-219.1 -675.92,-192.42 -980.98,15 -402.03,273.35 -627.12,876.2 -439.16,1362.36 30.14,77.94 69.79,150.07 118.14,203.99 75.46,84.14 154.46,166.14 270.22,212.55 136.72,54.8 49.54,-40.04 390.18,-60.16z"/>
   <path class="fil0" d="M3202.63 1178.88c16.07,-65.07 117.12,-166.22 159.93,-199.94 155.27,-122.32 390.75,-93.18 557.06,-8.41 148.1,75.49 272.76,221.66 340.31,371.87 38.47,85.55 67.49,184.52 67.51,292.1 0.06,254.52 -93.21,345.83 -258.76,462.57 -67.94,38.33 -80.36,31.83 -163.66,42.92 11.59,-2.2 242.57,18.11 295.79,118.12 -65.01,5.11 -171.12,-114.66 -329.06,-66.96 -11.77,53.91 -6.85,176.75 9.29,224.58 51.67,17.22 91.92,5.63 140.55,36.74 105.47,67.45 134.67,18.96 249.65,-39.58 384.43,-195.69 466.19,-723.37 326.8,-1104.26 -78.83,-215.42 -253.25,-472.2 -446.63,-594.72 -74.14,-46.98 -135.02,-83.77 -225.25,-121.32 -359.94,-149.81 -767.33,-52.96 -974.68,280.34 -10.77,17.3 -56.32,101.36 -58.03,119.31 -2.24,23.54 46.05,99.88 57.5,109.17 24.44,19.81 208.14,85.08 251.68,77.47z"/>
   <path class="fil1" d="M1151.51 2526.59c6.85,-31.64 18,-25.08 49,-35.36 23.31,-7.73 46.61,-16 70.32,-21.59 45.43,-10.7 112.96,-21.09 159.74,-17.34l3.31 93.07 -282.37 -18.78zm2716.39 -4.47l10.26 -74.14c37.31,-0.26 142.38,28.37 156.48,58.58 -33.98,15.6 -125.34,17.71 -166.74,15.56zm200.78 -425.05c-12.18,-5.58 -2.31,-2.58 -17.94,-5.46 -10.49,-1.93 -17.52,-1.89 -30.56,-4.39 -55.54,-0.08 -106.21,32.8 -173.42,23.3 -9.2,-48.47 -25.56,-85.57 -24.31,-137.88l34.98 -4.39c41.26,-47.17 170.09,-48.47 227.92,-37.68 37.92,7.07 45.21,21.1 63.94,0.26 -73.78,-48.27 -155.58,-27.1 -241.12,-24.2l2.75 0.47 -106.46 35.54 -101.34 -230.51c-96.57,-208.12 -259.94,-340.48 -432.86,-473.25 -25.89,-19.88 -26.93,-24.89 -49.86,-31.08 -8.64,-9.44 -9.3,0.69 -17.77,-28.92 -43.54,7.61 -227.24,-57.66 -251.68,-77.47 -11.45,-9.29 -59.74,-85.63 -57.5,-109.17 1.71,-17.95 47.26,-102.01 58.03,-119.31 207.35,-333.3 614.74,-430.15 974.68,-280.34 90.23,37.55 151.11,74.34 225.25,121.32 193.38,122.52 367.8,379.3 446.63,594.72 139.39,380.89 57.63,908.57 -326.8,1104.26 -114.98,58.54 -144.18,107.03 -249.65,39.58 -48.63,-31.11 -88.88,-19.52 -140.55,-36.74 -16.14,-47.83 -21.06,-170.67 -9.29,-224.58 157.94,-47.7 264.05,72.07 329.06,66.96 -53.22,-100.01 -284.2,-120.32 -295.79,-118.12 83.3,-11.09 95.72,-4.59 163.66,-42.92zm-2540.15 -54c-13.01,-12.59 -15.12,-5.1 -22.6,5.93 -5.65,8.33 -6.8,15.83 -7.81,17.22 -11.58,15.99 -6.48,10.47 -23.16,18.73 -13.65,41.41 -12.95,58.22 -114.96,48.22l-120.68 -22.55c-13.23,-7.17 -8.92,-6.45 -16.74,-13.79 -52.45,3.46 -107.53,-57.83 -137.47,-86.24 -24.39,-23.16 -28.71,-20.91 -35.54,-41.13 -70.37,-43.43 -115.23,-198.68 -116.4,-301.1 -1.54,-134.29 29.49,-236.38 72.79,-334.28 17.93,-43.87 58.15,-105.48 85.77,-136.08 59.29,-65.68 7.42,-35.74 112.9,-117.05 24.99,-19.26 36.62,-26.14 63.35,-46.31 134.55,-101.51 442.93,-141.37 603.55,20.19 58.74,59.08 135.32,129.73 118.27,224.32 -6.6,36.62 -34.32,44.99 -45.99,69.14l5.97 33.67c90.14,-42.71 165.77,-136.98 263.59,-163.45 40.55,-10.98 63.7,-27.27 89.65,-54.41 48.88,-51.13 240.41,-194.38 272.06,-228.09 23.15,-24.65 10.6,-25.27 42.93,-29.08 -14.26,81.76 -101.67,140.31 -111.79,233.87 41.9,-7.42 95.94,-48.96 132.19,-73.49 33.92,-22.96 81.62,-68.44 131.38,-63.86 5.08,54.4 -64.9,92.93 -52.55,154.05 58.85,5.28 71.55,-90.42 132.55,-119.94 42.66,23.99 38.15,98.05 60.06,136.46 71.81,-5.8 4.86,-45.58 145.55,9.1 168.93,65.65 320.93,170 434.04,302.98 66.21,77.83 75.03,79.42 140.6,180.99 27.71,42.94 124.27,242.8 135.79,292.02 -71.93,39.36 -223.72,143.54 -248.07,218.27 49.33,-8.45 196,-161.86 254.53,-188.68 37.5,187.78 74.63,157.86 -77.15,237.04 -51.42,26.83 -82.24,31.01 -100.14,87.26 66.03,-11.13 173.19,-117.29 225.58,-109.07l17.04 207.7c-58.62,1.85 -175.29,-14.95 -199.84,35.67 49.68,24.11 136.4,-23.12 186.13,7.92 60.9,61.95 -94.03,478.99 -150.56,595.64 -59.03,121.79 -115.32,181.85 -191.11,273.81 -27.08,32.85 -46.99,48.01 -75.04,77.83 -64.22,68.26 -179.36,146.99 -264.09,193.04 -314.35,170.85 -661.62,166.63 -985.3,17.9 -51.4,-23.62 -146.9,-80.54 -188.4,-116.44l-118.83 -109.89c-95.17,-95.91 -229.43,-294.65 -274.81,-419.4 -65.28,-179.45 -80.09,-254.09 -96.61,-435.56 -15.61,-171.47 66.31,-18.86 127.46,-95.58l-129 -25.25 0.12 -157.88 99.81 16.36c-7.97,-35.82 -35.13,-37.49 -95.08,-46.29l46.06 -180.44zm-104.96 374.28c-340.64,20.12 -253.46,114.96 -390.18,60.16 -115.76,-46.41 -194.76,-128.41 -270.22,-212.55 -48.35,-53.92 -88,-126.05 -118.14,-203.99 -187.96,-486.16 37.13,-1089.01 439.16,-1362.36 305.06,-207.42 692.59,-234.1 980.98,-15 27.76,21.09 62.36,54.75 83.37,77.2 62.85,67.13 183.31,263.11 177.21,306.42 -23.84,46.59 -76.88,87.62 -135.71,110.68 -117.96,46.25 -72.07,45.93 -153.05,84.09 -15.61,-21.41 -13.63,-38 -31.56,-78.43 -31.41,-70.86 -77.3,-115.49 -132.42,-172.3 -52.23,-53.84 -205.45,-93.14 -309.98,-93.43 -443.51,-1.25 -768.77,535.48 -626.01,944.56 36.43,104.42 107.73,179.25 182.12,224.64 156.4,95.41 196.31,69.47 332.92,72.69l-2.25 49.26c-54.04,8.23 -325.26,-27.57 -334.55,76.66 131.41,-54.48 164.69,-47.1 324.8,-40.34l-16.49 172.04zm1183.66 -1388.89c22.08,-49.22 77.52,-101.16 44.57,-164.43 -46.44,-12.32 -106.62,36.59 -148.47,68.78l-63.75 54.39c-23.89,19.41 -39.11,38.88 -63.92,46.06 -41.12,-39.5 -70.98,-149.72 -109.66,-203.89 -66.14,-92.63 -90.92,-110.77 -174.43,-180.32l-70.01 -48.86c-263.02,-152.09 -583.53,-149.52 -844.81,-3.19 -170.5,95.49 -141.43,73.29 -266.92,198.32 -15.23,15.17 -28.54,20.29 -41.01,34.87l-164.24 224.66c-116.11,182.06 -185.57,574.53 -167.03,766.24 8.29,85.72 34.79,177.45 64.06,250.49 83.6,208.66 245.89,381.4 454.34,466.99l-23.28 70.17c25.55,-2.11 15.76,3.44 31.49,-15.69 23.5,-28.57 -5.96,-8.09 25.8,-28.19 35.36,-18.2 119.18,14.63 166.41,18.82 49.84,4.43 138.59,-3.45 174.48,4.11 23.87,42.42 35.85,187.64 54.96,250.25 20.77,68.06 56.42,154.04 84.54,220.52 41.22,97.47 115.13,192.94 179.47,277.16 86.59,113.35 57.63,63.87 108.23,112.15 16.17,15.44 16.24,25.95 35.21,40.17 79.01,59.25 183.63,133.13 274.11,174.86 365.85,168.71 790.42,125.8 1112.11,-108.83l87.86 -64.15c27.87,-18.7 81.29,-86.53 110.23,-109.63l77.78 -74.74c23.28,-28.58 39.62,-57.13 64.06,-88.27 47.11,-60.04 74.14,-111.74 110.84,-185.35 56.01,-112.33 118.58,-327 134.45,-468.57 56.67,-5.48 114.46,-12.12 169.9,-17.23 98.98,-9.14 65.15,50.04 114.2,65.08 7.31,-40.53 -12.81,-45.19 -25.12,-83.99 74.19,-16.8 160.99,-57.56 222.14,-99.67 37.04,-25.51 62.28,-38.25 87.6,-72.88 20.91,-28.59 43.46,-50.34 75.25,-77.35 69.93,-59.39 176.21,-338.59 187.85,-439.62 16.12,-139.93 -11.37,-436.19 -61.79,-557.81 -29.78,-71.85 -67.36,-144.44 -105.57,-207.01 -20.78,-34.04 -40.23,-63.91 -64.36,-96.82 -14.45,-19.71 -15.67,-26.88 -30.17,-46.01 -12.73,-16.79 -22,-24.3 -34.55,-41.16 -65.52,-88.01 -115.49,-134.33 -210.47,-196.16 -17.76,-11.55 -26.7,-19.4 -44.85,-31.52 -304.26,-203.16 -684.59,-265.61 -1002.18,-46.08 -92.08,63.65 -120.69,88.94 -191.51,197.32 -35.99,55.08 -99.11,131.9 -114.95,198.42l-29.58 -28.14c-49.85,-72.84 -98.54,16.65 -199.31,45.73z"/>
   <path class="fil2" d="M1194.51 1173.79c-11.74,13.79 -26.15,27.24 -39.15,45.4l-65.89 102.88c-18.94,36.32 -35.11,56.39 -39.33,91.62l-10.37 114.67c-4.2,45.98 8.89,101.87 1.25,169.4 34.1,18.35 -7.22,36.14 -23.14,42.98 -55.61,-107.15 -8.94,-136.95 -31.83,-215.31 -26.95,23.31 -16.96,-23.93 -22.43,41.15l4.63 194.26c4.21,28.72 10.59,48.75 10.87,84.77 28.35,23.55 73.09,94.05 70.45,123.85 6.83,20.22 11.15,17.97 35.54,41.13 29.94,28.41 85.02,89.7 137.47,86.24 82.27,-17.34 52.97,36.27 222.24,-0.96 -1.24,-87.41 35.92,-88.88 -68.19,-88.88 -15.6,-22.37 -83.42,-19.77 -117.6,-27.47 -97.19,-21.89 -48.65,10.01 -94.11,28.52 -56.12,-36.37 39.75,8.81 -64.98,-49.77 50.5,-42.19 87.04,-43.48 175.03,-44.43 76.56,-0.83 130.67,31.74 203.22,32.14 1.98,-1.98 5.11,-7.5 6.03,-5.88l95.64 -193.64c26.21,-39.64 -1.51,-13.89 36.46,-23.26 57.57,-84.75 40.63,-88.13 118.86,-178.68 26.58,-30.76 45.14,-49.98 72.74,-79.57 14.55,-15.6 20.22,-25.64 36.29,-40.17 18.76,-16.97 24.19,-16.54 34.75,-37.15l90.13 -93.63c-3.55,-39.04 -8.15,-60.32 -17.37,-97.62 -13.77,-55.68 -2.88,-32.23 -37.73,-65.52 -41.64,-39.76 -57.83,-74.28 -128.63,-116.93l-99.17 -43.52c-68.27,-18.15 -110.76,-20.11 -162.71,6.81 24.05,15.72 15.72,-3.81 41.97,23.96 -20.61,0.7 -90.73,-6.36 -95.73,12.98 -96,3.29 -218.63,94.15 -275.21,159.63z"/>
   <path class="fil3" d="M2607.23 1028.46c100.77,-29.08 149.46,-118.57 199.31,-45.73l29.58 28.14c15.84,-66.52 78.96,-143.34 114.95,-198.42 70.82,-108.38 99.43,-133.67 191.51,-197.32 317.59,-219.53 697.92,-157.08 1002.18,46.08 18.15,12.12 27.09,19.97 44.85,31.52 94.98,61.83 144.95,108.15 210.47,196.16 12.55,16.86 21.82,24.37 34.55,41.16 14.5,19.13 15.72,26.3 30.17,46.01 24.13,32.91 43.58,62.78 64.36,96.82 38.21,62.57 75.79,135.16 105.57,207.01 50.42,121.62 77.91,417.88 61.79,557.81 -11.64,101.03 -117.92,380.23 -187.85,439.62 -31.79,27.01 -54.34,48.76 -75.25,77.35 -25.32,34.63 -50.56,47.37 -87.6,72.88 -61.15,42.11 -147.95,82.87 -222.14,99.67 12.31,38.8 32.43,43.46 25.12,83.99 -49.05,-15.04 -15.22,-74.22 -114.2,-65.08 -55.44,5.11 -113.23,11.75 -169.9,17.23 -15.87,141.57 -78.44,356.24 -134.45,468.57 -36.7,73.61 -63.73,125.31 -110.84,185.35 -24.44,31.14 -40.78,59.69 -64.06,88.27l-77.78 74.74c-28.94,23.1 -82.36,90.93 -110.23,109.63l-87.86 64.15c-321.69,234.63 -746.26,277.54 -1112.11,108.83 -90.48,-41.73 -195.1,-115.61 -274.11,-174.86 -18.97,-14.22 -19.04,-24.73 -35.21,-40.17 -50.6,-48.28 -21.64,1.2 -108.23,-112.15 -64.34,-84.22 -138.25,-179.69 -179.47,-277.16 -28.12,-66.48 -63.77,-152.46 -84.54,-220.52 -19.11,-62.61 -31.09,-207.83 -54.96,-250.25 -35.89,-7.56 -124.64,0.32 -174.48,-4.11 -47.23,-4.19 -131.05,-37.02 -166.41,-18.82 -31.76,20.1 -2.3,-0.38 -25.8,28.19 -15.73,19.13 -5.94,13.58 -31.49,15.69l23.28 -70.17c-208.45,-85.59 -370.74,-258.33 -454.34,-466.99 -29.27,-73.04 -55.77,-164.77 -64.06,-250.49 -18.54,-191.71 50.92,-584.18 167.03,-766.24l164.24 -224.66c12.47,-14.58 25.78,-19.7 41.01,-34.87 125.49,-125.03 96.42,-102.83 266.92,-198.32 261.28,-146.33 581.79,-148.9 844.81,3.19l70.01 48.86c83.51,69.55 108.29,87.69 174.43,180.32 38.68,54.17 68.54,164.39 109.66,203.89 24.81,-7.18 40.03,-26.65 63.92,-46.06l63.75 -54.39c41.85,-32.19 102.03,-81.1 148.47,-68.78 32.95,63.27 -22.49,115.21 -44.57,164.43zm219.89 -111.78c-124.3,-4.55 -102.48,16.6 -126.93,-59.55 -8.61,-26.83 -9.4,-26.64 -30.51,-35.39 -51,-21.12 -107.93,15.31 -143.81,39.58l-101.92 75.84c-13.71,10.59 -21.08,14.49 -31.36,24.28 -50.01,-38.42 -68.77,-151.37 -120.73,-205.51 -32.98,-34.37 -108.27,-117.81 -146.11,-142.53 -59.48,-38.84 -109.94,-71.63 -187.14,-102.41 -202.71,-80.82 -371.14,-81.91 -591.15,-35.91 -96.33,20.14 -216.86,94.89 -308.73,152.13l-130.56 98.01c-43.6,32.86 -75.1,77.69 -106.37,123.12 -48.43,70.37 -59.1,50.23 -140.26,197.51 -83.57,151.65 -113.83,264.48 -141.09,439.45 -27.36,175.61 -43.75,355.84 11.28,526.16 29.18,90.32 65.28,181.38 122.14,258.76l146.07 161.55c51.03,51.5 131.91,77.9 187.88,125.59l-5.83 67.87c26.74,27.51 36.87,28.65 81.22,32.05l50.91 -54.03c112,6.96 119.54,32.44 287.92,28.07 20.91,273.83 137.48,506.82 298.64,710.7l216.53 223.6c257.35,169.32 406.15,244.77 754.78,244.77 154.72,0 376.72,-74.04 479.63,-127.83 115.47,-60.35 221.6,-132.7 313.75,-221.23l9.12 -7.95c1.29,-1.24 3.13,-2.94 4.41,-4.2 1.28,-1.26 2.98,-3.11 4.23,-4.4 1.26,-1.28 2.87,-3.2 4.11,-4.49 92.96,-97.67 75.27,-70.34 157.6,-180.95l117.57 -188.89c57.92,-111.15 126.02,-329.22 140.74,-465.96l166.82 -14.14c36,55.28 41.17,71.14 117.51,77.04l8.44 -109.95c32.48,-27.53 80.53,-36.7 116.07,-53.62 50.63,-24.11 115.53,-71.38 149.15,-113.33l21.61 -19.77c11.42,-10.89 10.98,-13.8 24.37,-27.06 73.15,-72.5 97.65,-117.04 140.24,-209.09 5.06,-10.93 10.26,-20.89 14.6,-30.14 77.78,-165.87 100.99,-349.75 70.52,-546.09 -14.87,-95.8 -6.79,-175.53 -37.98,-261.71l-153.81 -293.24c-58.19,-74.41 -109.09,-154.61 -175.68,-223.1 -99.67,-102.5 -26.89,-32.5 -142.14,-121.69 -198.3,-153.44 -431.69,-226.33 -687.28,-226.33 -164.87,0 -362.11,104.46 -477.68,189.62 -41.08,30.26 -82.91,77.57 -110.46,119.72 -37.39,57.19 -89.55,116.1 -120.33,175.07z"/>
   <path class="fil2" d="M3367.86 1014.87l5.1 21.48c66.62,-9.75 64.03,-33.54 136.6,-6.41 -16.17,12.19 -6.6,19.26 -46.42,31.79 -109.28,34.4 -60.48,20.06 -97.87,46.99l-8.61 4.71c-41.56,24.49 -20.33,27.14 -60.01,38.47l1.64 11.95c-0.01,0.67 0.38,4 0.29,4.73 -2.29,18.69 -2.16,-6.26 -27.51,25.65 7.93,15.38 8.59,18.87 25.75,35 35.26,33.15 18.41,1.87 58.6,41.43 43.16,42.49 144.47,85.21 156.05,154.44l39.54 1.37c-5.66,17.91 48.84,83.39 65.23,102.79 6.23,7.38 19.62,23.9 22.35,28.33l39.63 60.5c7.28,10.56 12.77,22.02 19.19,32.42 70.05,113.49 87.01,192.6 113.73,239.63 9.93,17.49 -5.96,4.94 20.78,17.57 17.67,-9.07 41.78,-7.97 63.28,-5.41 14.9,1.77 14.96,4.46 15.72,4.8l-2.75 -0.47c31.63,-74.97 272.56,7.46 282.79,9.46 50.62,-62.58 71.31,-136.08 75.81,-213.86 -2.07,-1.31 -5.31,-5.54 -6.43,-3.6l-18.86 -8.52c-13.48,-7.16 -1.74,3.21 -17.88,-13.32l-5.22 -23.99c-7.43,-29.95 -19.78,-109.09 -27.06,-132.44 -16.33,-52.38 -37.92,-44.99 -42.78,-120.78 -33.8,-12.82 -15.61,1.06 -30.26,-33.59 -13.61,-32.2 -14.47,-20.81 -32.29,-44.22 -11.44,-15.02 -18.06,-29.88 -28.61,-46.52 -32.2,-50.81 -35.3,-10.89 -69.85,-67.58l-63.69 -62.24c-41.78,-29.58 -40.09,-2.18 -56.95,-42.35 -43.78,-8.73 -57.64,-9.4 -94.23,-47.03 -58.71,0.7 -60.2,4.31 -88.12,-25.5l-75.25 -26.03c153.33,-14.4 302.49,70.67 406.75,174.93 27.44,27.44 75.86,69.91 94.42,99.49 85.21,56.57 120.29,211.25 142.91,325.84 12.83,-10.94 19.25,9.98 16.03,-37.35 -4.17,-61.23 -27.35,-149.85 -53.61,-206.84 -17.09,-37.09 -33.89,-32.56 -31.48,-84.66 -8.49,-70.96 -142.68,-188.66 -222.82,-236.36 -193.2,-114.97 -406.75,-159.12 -593.63,-24.7z"/>
   <path class="fil1" d="M2269.54 2866.01l290.72 107.29 8.02 471.53c-294.06,-4.12 -224.7,11.05 -251.12,-184.98 -17.5,-129.8 -31.5,-262.86 -47.62,-393.84zm632.66 -0.28l-72.31 568.29 -225.71 10.06 -7.21 -464.42 305.23 -113.93zm-282.04 -294.97c-10.91,-5.1 -0.84,1.94 -17.96,-9.92 -22.82,-15.81 4,6.72 -7.65,-8.96 -54.75,-13.52 -76.09,-40.27 -122.78,-73.31 -77.48,-54.83 -176.1,-119.89 -169.09,-226.36 4.28,-64.94 60.65,-75.89 85.32,-108.31l2.53 -22.69c68.37,6.29 26.65,4.87 44.35,-12.58 -18.99,-17.1 29.93,-22.09 -35.87,-13.27 -204.06,92.48 -169.25,272.56 4.71,400.08 179.87,131.84 125.19,39.78 109.84,247.9 -4.56,61.82 -1.31,112.04 1.86,173.24 -39.92,-11.8 -170.45,-58.13 -192.5,-77.79l-62.28 -64.57c-48.01,-49.66 -114.49,-179.05 -143.69,-246.24 -32.19,-74.09 14.67,-163.71 -105.36,-145.77 -31.81,23.12 -36.94,43.61 -30.99,89.51 8.54,18.61 86.25,21.98 142.16,194.84 49.8,153.97 113.05,118.38 113.81,203.61 0.74,81.78 24.44,209.83 34.36,297.57 6.04,53.41 12.64,99.88 18.17,151.41 13.16,122.83 3.95,144.71 51.89,150.06l111.22 6.13c183.35,9.46 222.49,3.43 409.63,-8.46 16.33,-61.82 69.86,-550.46 72.84,-630.12 37.5,-29.9 113.76,-159.73 137.07,-201.77 49.69,-89.64 202.38,-279.79 -1.33,-237.24 -28.29,53.71 -8.24,58.45 -8.56,109.09 -0.25,39.8 -138.97,262.98 -201.82,323.15 -34.4,32.93 -246.33,110.5 -281.92,109.43 -7.55,-66.79 -3.96,-136.29 -1.1,-204.72 3.06,-73.23 -11.45,-138.56 43.14,-163.94z"/>
   <path class="fil0" d="M2804.61 1757.56c59.24,-22.57 124.24,29.65 127.28,81.1 3.29,55.64 -21.98,128.52 -67.27,140.95 -162.07,44.46 -166.94,-181.31 -60.01,-222.05zm306.38 63.2c73.79,-237.01 -249.2,-375.47 -367.25,-207.52 -72.16,102.67 -178.63,429.06 131.84,459.89 80.83,8.03 138.48,-17.69 177.41,-66.02 44.82,-55.65 37.49,-120.45 58,-186.35z"/>
   <path class="fil0" d="M2487.42 1905.43c-61.37,121.2 -227.2,99.13 -181.4,-78.34 38.54,-149.33 243.97,-45.21 181.4,78.34zm-183.92 -370.1c-255.91,43.91 -226.21,650.56 99.12,507.16 102.36,-45.12 200.07,-165.23 179.83,-303.43 -17.68,-120.76 -131.76,-228.98 -278.95,-203.73z"/>
   <path class="fil2" d="M2719.86 2461.34c30.67,-9.13 67.41,-56.01 86.85,-82.51 25.79,-35.17 44.93,-65.7 39.01,-124.7l-10.6 -15.07c-52.28,9.27 -11.31,6.04 -27.3,-11.9l-2.67 6.62c-20.71,-75.73 -45.53,-83.85 -114.09,-95.89 -23.42,-4.11 -40.17,-16.03 -86.77,-17.5 -77.05,-2.44 -130.57,-1.98 -200.05,41.38 -124.39,77.65 -68.39,162.69 17.17,248.11l148.98 113.8 76.33 -25.5c2.43,-38.62 38.05,-36.14 73.14,-36.84z"/>
   <polygon class="fil0" points="2596.97,2979.66 2604.18,3444.08 2829.89,3434.02 2902.2,2865.73 "/>
   <path class="fil0" d="M2317.16 3259.85c26.42,196.03 -42.94,180.86 251.12,184.98l-8.02 -471.53 -290.72 -107.29c16.12,130.98 30.12,264.04 47.62,393.84z"/>
   <path class="fil4" d="M3202.63 1178.88c8.47,29.61 9.13,19.48 17.77,28.92 18.67,-58.38 30.51,-70.13 61.17,-115.13 17.39,-25.53 14.37,-22.99 40.53,-43.81 20.92,-16.66 24.3,-21.38 45.76,-33.99 186.88,-134.42 400.43,-90.27 593.63,24.7 80.14,47.7 214.33,165.4 222.82,236.36 15.07,9.79 9.43,-0.07 25.37,23.45l33.34 68c82.84,184.22 79.16,451.91 -67.59,610.73 -11.71,12.67 -22.37,21.94 -35.57,32.27 -28.54,22.33 -46.98,38.84 -89.47,54.44l-30.21 22.4c13.04,2.5 20.07,2.46 30.56,4.39 15.63,2.88 5.76,-0.12 17.94,5.46 165.55,-116.74 258.82,-208.05 258.76,-462.57 -0.02,-107.58 -29.04,-206.55 -67.51,-292.1 -67.55,-150.21 -192.21,-296.38 -340.31,-371.87 -166.31,-84.77 -401.79,-113.91 -557.06,8.41 -42.81,33.72 -143.86,134.87 -159.93,199.94z"/>
   <path class="fil1" d="M3110.99 1820.76c-20.51,65.9 -13.18,130.7 -58,186.35 -38.93,48.33 -96.58,74.05 -177.41,66.02 -310.47,-30.83 -204,-357.22 -131.84,-459.89 118.05,-167.95 441.04,-29.49 367.25,207.52zm-235.29 -316.72c-171.04,28.23 -225.71,163.95 -240.43,324.96 -8.82,96.42 10.95,176.09 66.22,216.21 78.28,56.85 231.86,93.33 329.49,32.87 81.97,-50.76 114.98,-209.46 125.67,-299.32 21.5,-180.58 -174.98,-292.21 -280.95,-274.72z"/>
   <path class="fil1" d="M2303.5 1535.33c147.19,-25.25 261.27,82.97 278.95,203.73 20.24,138.2 -77.47,258.31 -179.83,303.43 -325.33,143.4 -355.03,-463.25 -99.12,-507.16zm-7.79 -33.66c-147.72,23.51 -209.28,193.59 -195.24,359.99 13.41,158.96 130.8,293.94 304.01,217.01 357.08,-158.59 231.46,-631.14 -108.77,-577z"/>
   <path class="fil5" d="M1005.96 1334.08l40.39 -21.27c-3.14,31.3 -1.85,30.29 12.91,49.92 6.39,-31.15 35.32,-86.62 55.35,-107.29l79.9 -81.65c56.58,-65.48 179.21,-156.34 275.21,-159.63 5,-19.34 75.12,-12.28 95.73,-12.98 -26.25,-27.77 -17.92,-8.24 -41.97,-23.96 51.95,-26.92 94.44,-24.96 162.71,-6.81l99.17 43.52c70.8,42.65 86.99,77.17 128.63,116.93 34.85,33.29 23.96,9.84 37.73,65.52 9.22,37.3 13.82,58.58 17.37,97.62l-90.13 93.63c31.34,-10.92 33.44,-20.83 64.85,-39.34 11.67,-24.15 39.39,-32.52 45.99,-69.14 17.05,-94.59 -59.53,-165.24 -118.27,-224.32 -160.62,-161.56 -469,-121.7 -603.55,-20.19 -26.73,20.17 -38.36,27.05 -63.35,46.31 -105.48,81.31 -53.61,51.37 -112.9,117.05 -27.62,30.6 -67.84,92.21 -85.77,136.08z"/>
   <path class="fil4" d="M1878.96 1387.63c-10.56,20.61 -15.99,20.18 -34.75,37.15 -16.07,14.53 -21.74,24.57 -36.29,40.17 -27.6,29.59 -46.16,48.81 -72.74,79.57 -78.23,90.55 -61.29,93.93 -118.86,178.68l-121.2 256.25c-91.44,-25.85 -260.02,-79.05 -356.82,-23.22 14.33,8.5 -28.25,14.88 45.32,2.51 73.13,-12.3 236.21,22.76 306.9,44.28l-15.56 81.93c16.68,-8.26 11.58,-2.74 23.16,-18.73 1.01,-1.39 2.16,-8.89 7.81,-17.22 7.48,-11.03 9.59,-18.52 22.6,-5.93l5.82 -21.33c35.83,19.42 62.48,35.32 94.28,55.3 29.86,18.77 59.15,52.89 99.67,44.63 -3,-35.64 -49.62,-47.94 -79.36,-65.53 -38.6,-22.84 -66.22,-37.63 -100.66,-56.31 12.67,-124.51 173.63,-386.25 269.07,-492.29l132.43 -125.58 -5.97 -33.67c-31.41,18.51 -33.51,28.42 -64.85,39.34z"/>
   <path class="fil6" d="M3220.4 1207.8c22.93,6.19 23.97,11.2 49.86,31.08 172.92,132.77 336.29,265.13 432.86,473.25l101.34 230.51 106.46 -35.54c-0.76,-0.34 -0.82,-3.03 -15.72,-4.8 -21.5,-2.56 -45.61,-3.66 -63.28,5.41 -26.74,-12.63 -10.85,-0.08 -20.78,-17.57 -26.72,-47.03 -43.68,-126.14 -113.73,-239.63 -6.42,-10.4 -11.91,-21.86 -19.19,-32.42l-39.63 -60.5c-2.73,-4.43 -16.12,-20.95 -22.35,-28.33 -16.39,-19.4 -70.89,-84.88 -65.23,-102.79l-39.54 -1.37c-11.58,-69.23 -112.89,-111.95 -156.05,-154.44 -40.19,-39.56 -23.34,-8.28 -58.6,-41.43 -17.16,-16.13 -17.82,-19.62 -25.75,-35 25.35,-31.91 25.22,-6.96 27.51,-25.65 0.09,-0.73 -0.3,-4.06 -0.29,-4.73l-1.64 -11.95c39.68,-11.33 18.45,-13.98 60.01,-38.47l8.61 -4.71c37.39,-26.93 -11.41,-12.59 97.87,-46.99 39.82,-12.53 30.25,-19.6 46.42,-31.79 -72.57,-27.13 -69.98,-3.34 -136.6,6.41l-5.1 -21.48c-21.46,12.61 -24.84,17.33 -45.76,33.99 -26.16,20.82 -23.14,18.28 -40.53,43.81 -30.66,45 -42.5,56.75 -61.17,115.13z"/>
   <path class="fil6" d="M1005.96 1334.08c-43.3,97.9 -74.33,199.99 -72.79,334.28 1.17,102.42 46.03,257.67 116.4,301.1 2.64,-29.8 -42.1,-100.3 -70.45,-123.85 -0.28,-36.02 -6.66,-56.05 -10.87,-84.77l-4.63 -194.26c5.47,-65.08 -4.52,-17.84 22.43,-41.15 22.89,78.36 -23.78,108.16 31.83,215.31 15.92,-6.84 57.24,-24.63 23.14,-42.98 7.64,-67.53 -5.45,-123.42 -1.25,-169.4l10.37 -114.67c4.22,-35.23 20.39,-55.3 39.33,-91.62l65.89 -102.88c13,-18.16 27.41,-31.61 39.15,-45.4l-79.9 81.65c-20.03,20.67 -48.96,76.14 -55.35,107.29 -14.76,-19.63 -16.05,-18.62 -12.91,-49.92l-40.39 21.27z"/>
   <path class="fil6" d="M4110.46 1278.94c15.88,21.67 14.55,16.86 29.01,42.12 12.07,21.09 14.15,20.77 25.53,42.2 15.06,28.32 29.92,55.6 42.2,85.54 13.74,33.5 23.66,65.74 31.81,106.22 3.03,15.06 14.23,76.88 6.55,97.39 -13.43,35.87 15.25,1.7 -21.96,24.38 16.14,16.53 4.4,6.16 17.88,13.32l18.86 8.52c1.12,-1.94 4.36,2.29 6.43,3.6 -4.5,77.78 -25.19,151.28 -75.81,213.86 -10.23,-2 -251.16,-84.43 -282.79,-9.46 85.54,-2.9 167.34,-24.07 241.12,24.2 -18.73,20.84 -26.02,6.81 -63.94,-0.26 -57.83,-10.79 -186.66,-9.49 -227.92,37.68 65.36,-0.42 147.49,-46.31 249.51,-9.89l33.05 16.94c-1.58,1.33 -3.91,1.44 -4.62,4.13l-67.55 56.82c-56.2,37.42 1.17,-31.32 -17.43,28.57 42.49,-15.6 60.93,-32.11 89.47,-54.44 13.2,-10.33 23.86,-19.6 35.57,-32.27 146.75,-158.82 150.43,-426.51 67.59,-610.73l-33.34 -68c-15.94,-23.52 -10.3,-13.66 -25.37,-23.45 -2.41,52.1 14.39,47.57 31.48,84.66 26.26,56.99 49.44,145.61 53.61,206.84 3.22,47.33 -3.2,26.41 -16.03,37.35 -22.62,-114.59 -57.7,-269.27 -142.91,-325.84z"/>
   <path class="fil1" d="M2804.61 1757.56c-106.93,40.74 -102.06,266.51 60.01,222.05 45.29,-12.43 70.56,-85.31 67.27,-140.95 -3.04,-51.45 -68.04,-103.67 -127.28,-81.1z"/>
   <path class="fil5" d="M4223.6 1676.79c37.21,-22.68 8.53,11.49 21.96,-24.38 7.68,-20.51 -3.52,-82.33 -6.55,-97.39 -8.15,-40.48 -18.07,-72.72 -31.81,-106.22 -12.28,-29.94 -27.14,-57.22 -42.2,-85.54 -11.38,-21.43 -13.46,-21.11 -25.53,-42.2 -14.46,-25.26 -13.13,-20.45 -29.01,-42.12 -18.56,-29.58 -66.98,-72.05 -94.42,-99.49 -104.26,-104.26 -253.42,-189.33 -406.75,-174.93l75.25 26.03c27.92,29.81 29.41,26.2 88.12,25.5 36.59,37.63 50.45,38.3 94.23,47.03 16.86,40.17 15.17,12.77 56.95,42.35l63.69 62.24c34.55,56.69 37.65,16.77 69.85,67.58 10.55,16.64 17.17,31.5 28.61,46.52 17.82,23.41 18.68,12.02 32.29,44.22 14.65,34.65 -3.54,20.77 30.26,33.59 4.86,75.79 26.45,68.4 42.78,120.78 7.28,23.35 19.63,102.49 27.06,132.44l5.22 23.99z"/>
   <path class="fil2" d="M3857.43 1968.25l-34.98 4.39c-1.25,52.31 15.11,89.41 24.31,137.88 67.21,9.5 117.88,-23.38 173.42,-23.3l30.21 -22.4c18.6,-59.89 -38.77,8.85 17.43,-28.57l67.55 -56.82c0.71,-2.69 3.04,-2.8 4.62,-4.13l-33.05 -16.94c-102.02,-36.42 -184.15,9.47 -249.51,9.89z"/>
   <path class="fil1" d="M2487.42 1905.43c62.57,-123.55 -142.86,-227.67 -181.4,-78.34 -45.8,177.47 120.03,199.54 181.4,78.34z"/>
   <path class="fil4" d="M2399.01 2095.36c65.8,-8.82 16.88,-3.83 35.87,13.27 -17.7,17.45 24.02,18.87 -44.35,12.58l-2.53 22.69c67.03,-12.6 122.7,-71.25 259.22,-44.43 48.4,9.51 90.09,13.37 122.23,38.76 24.5,19.36 60.09,56.99 65.67,100.83l10.6 15.07c5.92,59 -13.22,89.53 -39.01,124.7 -19.44,26.5 -56.18,73.38 -86.85,82.51 -27.05,43.45 -91.33,53.69 -125.31,90.54 11.65,15.68 -15.17,-6.85 7.65,8.96 17.12,11.86 7.05,4.82 17.96,9.92 109.9,-68.72 317.46,-177.7 244.34,-375.4 -31.98,-86.45 -94.95,-106.22 -195.09,-127.15 -96.4,-20.14 -189.72,-9.53 -270.4,27.15z"/>
   <path class="fil6" d="M1222.58 2096.83c7.82,7.34 3.51,6.62 16.74,13.79l120.68 22.55c102.01,10 101.31,-6.81 114.96,-48.22l15.56 -81.93c-70.69,-21.52 -233.77,-56.58 -306.9,-44.28 -73.57,12.37 -30.99,5.99 -45.32,-2.51 96.8,-55.83 265.38,-2.63 356.82,23.22l121.2 -256.25c-37.97,9.37 -10.25,-16.38 -36.46,23.26l-95.64 193.64c-0.92,-1.62 -4.05,3.9 -6.03,5.88 -72.55,-0.4 -126.66,-32.97 -203.22,-32.14 -87.99,0.95 -124.53,2.24 -175.03,44.43 104.73,58.58 8.86,13.4 64.98,49.77 45.46,-18.51 -3.08,-50.41 94.11,-28.52 34.18,7.7 102,5.1 117.6,27.47 104.11,0 66.95,1.47 68.19,88.88 -169.27,37.23 -139.97,-16.38 -222.24,0.96z"/>
   <path class="fil6" d="M2388 2143.9c-24.67,32.42 -81.04,43.37 -85.32,108.31 -7.01,106.47 91.61,171.53 169.09,226.36 46.69,33.04 68.03,59.79 122.78,73.31 33.98,-36.85 98.26,-47.09 125.31,-90.54 -35.09,0.7 -70.71,-1.78 -73.14,36.84l-76.33 25.5 -148.98 -113.8c-85.56,-85.42 -141.56,-170.46 -17.17,-248.11 69.48,-43.36 123,-43.82 200.05,-41.38 46.6,1.47 63.35,13.39 86.77,17.5 68.56,12.04 93.38,20.16 114.09,95.89l2.67 -6.62c15.99,17.94 -24.98,21.17 27.3,11.9 -5.58,-43.84 -41.17,-81.47 -65.67,-100.83 -32.14,-25.39 -73.83,-29.25 -122.23,-38.76 -136.52,-26.82 -192.19,31.83 -259.22,44.43z"/>
   <path class="fil0" d="M1433.88 2545.37l-3.31 -93.07c-46.78,-3.75 -114.31,6.64 -159.74,17.34 -23.71,5.59 -47.01,13.86 -70.32,21.59 -31,10.28 -42.15,3.72 -49,35.36l282.37 18.78z"/>
   <path class="fil0" d="M3867.9 2522.12c41.4,2.15 132.76,0.04 166.74,-15.56 -14.1,-30.21 -119.17,-58.84 -156.48,-58.58l-10.26 74.14z"/>
   <path class="fil1" d="M3238.96 2382.96c39.87,32.6 57.35,13.52 101.28,-9.39 -13.02,-30.47 -25.63,-32.97 -40.65,-61.7 -74,7.84 -63.14,41.73 -60.63,71.09z"/>
   <path class="fil1" d="M3310.62 2205.3l0.81 79.19 29.21 7.11c24,-25.17 42.7,-68.24 44.76,-100.35 -23.45,-4.53 -54.65,1.65 -74.78,14.05z"/>
   <path class="fil1" d="M3168.94 2233.77c-18.85,35.53 -3.77,56.61 27.86,55.67 19.08,-0.56 -0.71,1.03 15.03,-2.81 0.6,-0.15 22.87,-10.65 23.95,-11.1 4.13,-35.61 -9.82,-61.49 -30.39,-83.64l-12.98 13.58c-1.62,1.75 -6.39,7.01 -8.03,8.89 -13.16,15.1 -7.16,3.79 -15.44,19.41z"/>
   <path class="fil1" d="M1771.84 2241.34c7.8,26.98 16.03,40.38 36.55,59.66 22.62,-9.42 38.5,-23.85 52.81,-48.44 -11.51,-26.55 -11.76,-23.13 -26.78,-40.07 -36.4,2.41 -37.91,13.73 -62.58,28.85z"/>
   <path class="fil1" d="M1964.02 2218.7c4.33,26.19 3.02,18.83 15.67,40.15 23.59,1.56 19.12,3.84 42.57,-4.25l30.75 -18.97 -38.65 -55.48c-36.97,9.78 -38.08,12.53 -50.34,38.55z"/>
   <path class="fil1" d="M1960.92 2388.03c-34.2,-102.22 -132.16,-56.5 -59.4,15.11 32.82,2.81 36.83,2.07 59.4,-15.11z"/>
   <polygon class="fil7 str0" points="1542.67,3367.14 1743.03,3577.5 1808.58,3646.33 1935.38,3738.08 2046.47,3801.5 2169.46,3856.64 2260.98,3882.42 2416.16,3915.78 2542.33,3942.9 2561.27,3946.98 2633.46,4000.11 2464.44,3981.06 2202.86,3938.87 1921.6,3809.49 1747.22,3688.55 1558.77,3491.66 1470.55,3366.75 "/>
   <path class="fil7" d="M1470.55 3366.75c22.79,0.22 46.81,0.43 72.12,0.39 -21.38,-53.71 -194.54,-283.7 -246.46,-551.09 -3.78,-19.47 -4.85,-34.92 -17.41,-44.79 -34.6,-21.54 -121.07,-22.5 -149.84,-4.96 -44.35,27.05 -105.36,32.12 -158.01,9.97 -108.01,-45.45 -87.1,-110.51 -128.53,-150.48 -11.79,-11.38 -39.74,-26.51 -55.91,-37.18 -76.88,-50.68 -134.7,-114.87 -193.17,-179.49 -56.18,-62.08 -104.97,-139.87 -140.17,-231.85 -98.57,-257.58 -107.91,-332.11 -76.49,-636.05 26.99,-261.05 82.16,-440.15 212.22,-635.01l118.13 -161.59c59.48,-67.86 112.46,-129.41 187.49,-184.78 400.73,-295.7 901.23,-346.36 1308.83,-48.53 26.99,19.72 24.2,19.4 49.39,43.92 69.92,68.07 116.91,110.43 182.18,201.75 29.05,-9.14 42.71,-26.15 71.87,-41.33 154.62,-80.47 209.38,-6.13 275.27,22.12 45.43,-44.74 70.99,-108.69 119.34,-152.42 19.04,-17.22 25.07,-28.59 44.54,-48.66 47.75,-49.21 148.82,-103.5 229.99,-142.62 183.98,-88.69 401.39,-128.91 624.22,-73.73 240.18,59.48 331.89,113.69 503.76,232.75l106.13 79.75c96.51,78 175.53,202.15 248.8,309.87 89.61,131.76 188.09,335.87 201.08,537.48 17.56,272.72 44.65,374.37 -62.17,638.1 -82.6,203.93 -121.2,240.89 -259.51,383.53 -63.98,65.98 -201.37,126.69 -215.46,156.76 -12.1,25.8 -13.41,35.31 -31.18,62.15 -64.3,97.12 -171.98,76.05 -273.41,28.7 -23.16,29.94 -27.55,86.31 -38.22,125.07 -33.01,120.03 -87.18,249.68 -148.81,351.32l-300.46 359.45c-72.95,86.49 -307.22,216.76 -405.14,255.42 -205.43,81.12 -320.76,99.6 -564.29,106.29l72.19 53.13c31.9,-10.31 73.62,-7.53 106.17,-0.55l108.48 -16.6c17.61,-5.6 35.33,-10.78 53.9,-11.72 42.99,-2.16 65.1,-15.86 99.35,-11.06 67.24,-42.34 131.86,-67.92 209.48,-82.94 10.43,-3.83 20.53,-6.9 29.36,-10.13 7.5,-2.74 14.87,-4.84 22.09,-6.37 20.84,-22.48 45.44,-41.75 73.24,-56.5 28.27,-27.85 90.98,-62.29 118.93,-83.26 275.08,-206.37 535.38,-545.61 593.14,-889.43 312.65,58.21 255.75,-108.8 358.3,-165.96 87.32,-48.68 158.2,-93.27 213.98,-166.88 95.98,-126.69 105.46,-46.84 227.24,-348.82 109.09,-270.52 96.51,-353 69.73,-660.16 -12.66,-145.17 -21.07,-188.27 -70.23,-311.18 -51.48,-128.72 -121.67,-252.35 -204.31,-362.83 -78.82,-105.38 -170.92,-223.67 -281.39,-294.52 -187.67,-120.37 -279.29,-187.72 -513.46,-247.52 -324.96,-82.99 -630.57,-3.05 -890.9,181 -19.47,13.76 -29.79,28.68 -48.51,44.23 -18.76,15.58 -32.49,25.04 -48.71,44.37 -30.29,36.11 -52.99,78.67 -85.75,110.54 -129.63,-6.01 -68.39,-80.92 -321.73,22.38l-90.26 -94.26c-23.63,-25.2 -64.65,-70.99 -97.97,-96.71 -446.99,-345 -968.19,-288.61 -1418.98,41.61 -23.43,17.16 -26.16,26.25 -47.26,45.69 -19.55,18.01 -30.17,26.63 -47.66,45.82l-92.87 101.67c-202.88,218.94 -299.93,508.36 -337.01,814.59 -32.04,264.61 -18.34,437.86 75.93,656.23 73.67,170.63 188.2,325.48 338.99,432.52 65.36,46.4 52.03,24.18 89.97,96.61 20.91,39.93 58.04,74.35 98.53,96.29 151.21,81.95 199.73,-26.9 314.61,7.18 59.33,256.8 170.63,405.43 196.27,484.21l-4.82 0.15c15.92,18.33 29.74,38.24 41.22,58.95z"/>
   <g>
    <path class="fil0" d="M2561.27 3946.98l-374.9 -80.59 374.9 80.59c243.53,-6.69 358.86,-25.17 564.29,-106.29 97.92,-38.66 332.19,-168.93 405.14,-255.42l300.46 -359.45c61.63,-101.64 115.8,-231.29 148.81,-351.32 10.67,-38.76 15.06,-95.13 38.22,-125.07 101.43,47.35 209.11,68.42 273.41,-28.7 17.77,-26.84 19.08,-36.35 31.18,-62.15 14.09,-30.07 151.48,-90.78 215.46,-156.76 138.31,-142.64 176.91,-179.6 259.51,-383.53 106.82,-263.73 79.73,-365.38 62.17,-638.1 -12.99,-201.61 -111.47,-405.72 -201.08,-537.48 -73.27,-107.72 -152.29,-231.87 -248.8,-309.87l-106.13 -79.75c-171.87,-119.06 -263.58,-173.27 -503.76,-232.75 -222.83,-55.18 -440.24,-14.96 -624.22,73.73 -81.17,39.12 -182.24,93.41 -229.99,142.62 -19.47,20.07 -25.5,31.44 -44.54,48.66 -48.35,43.73 -73.91,107.68 -119.34,152.42 -65.89,-28.25 -120.65,-102.59 -275.27,-22.12 -29.16,15.18 -42.82,32.19 -71.87,41.33 -65.27,-91.32 -112.26,-133.68 -182.18,-201.75 -25.19,-24.52 -22.4,-24.2 -49.39,-43.92 -407.6,-297.83 -908.1,-247.17 -1308.83,48.53 -75.03,55.37 -128.01,116.92 -187.49,184.78l-118.13 161.59c-130.06,194.86 -185.23,373.96 -212.22,635.01 -31.42,303.94 -22.08,378.47 76.49,636.05 35.2,91.98 83.99,169.77 140.17,231.85 58.47,64.62 116.29,128.81 193.17,179.49 16.17,10.67 44.12,25.8 55.91,37.18 41.43,39.97 20.52,105.03 128.53,150.48 52.65,22.15 113.66,17.08 158.01,-9.97 28.77,-17.54 115.24,-16.58 149.84,4.96 12.56,9.87 13.63,25.32 17.41,44.79 51.92,267.39 225.08,497.38 246.46,551.09l47.64 134.28 -47.64 -134.28 35.6 37.38 230.31 241.81 49.67 38.39c186.31,136.84 268.81,143.74 328.12,181.67l374.9 80.59 -374.9 -80.59 374.9 80.59zm-752.69 -300.65l-230.31 -241.81 -35.6 -37.38 35.6 37.38 230.31 241.81zm1018.54 -2729.65c30.78,-58.97 82.94,-117.88 120.33,-175.07 27.55,-42.15 69.38,-89.46 110.46,-119.72 115.57,-85.16 312.81,-189.62 477.68,-189.62 255.59,0 488.98,72.89 687.28,226.33 115.25,89.19 42.47,19.19 142.14,121.69 66.59,68.49 117.49,148.69 175.68,223.1l153.81 293.24c31.19,86.18 23.11,165.91 37.98,261.71 30.47,196.34 7.26,380.22 -70.52,546.09 -4.34,9.25 -9.54,19.21 -14.6,30.14 -42.59,92.05 -67.09,136.59 -140.24,209.09 -13.39,13.26 -12.95,16.17 -24.37,27.06l-21.61 19.77c-33.62,41.95 -98.52,89.22 -149.15,113.33 -35.54,16.92 -83.59,26.09 -116.07,53.62l-8.44 109.95c-76.34,-5.9 -81.51,-21.76 -117.51,-77.04l-166.82 14.14c-14.72,136.74 -82.82,354.81 -140.74,465.96l-117.57 188.89c-82.33,110.61 -64.64,83.28 -157.6,180.95 -1.24,1.29 -2.85,3.21 -4.11,4.49 -1.25,1.29 -2.95,3.14 -4.23,4.4 -1.28,1.26 -3.12,2.96 -4.41,4.2l-9.12 7.95c-92.15,88.53 -198.28,160.88 -313.75,221.23 -102.91,53.79 -324.91,127.83 -479.63,127.83 -348.63,0 -497.43,-75.45 -754.78,-244.77l-216.53 -223.6c-161.16,-203.88 -277.73,-436.87 -298.64,-710.7 -168.38,4.37 -175.92,-21.11 -287.92,-28.07l-50.91 54.03c-44.35,-3.4 -54.48,-4.54 -81.22,-32.05l5.83 -67.87c-55.97,-47.69 -136.85,-74.09 -187.88,-125.59l-146.07 -161.55c-56.86,-77.38 -92.96,-168.44 -122.14,-258.76 -55.03,-170.32 -38.64,-350.55 -11.28,-526.16 27.26,-174.97 57.52,-287.8 141.09,-439.45 81.16,-147.28 91.83,-127.14 140.26,-197.51 31.27,-45.43 62.77,-90.26 106.37,-123.12l130.56 -98.01c91.87,-57.24 212.4,-131.99 308.73,-152.13 220.01,-46 388.44,-44.91 591.15,35.91 77.2,30.78 127.66,63.57 187.14,102.41 37.84,24.72 113.13,108.16 146.11,142.53 51.96,54.14 70.72,167.09 120.73,205.51 10.28,-9.79 17.65,-13.69 31.36,-24.28l101.92 -75.84c35.88,-24.27 92.81,-60.7 143.81,-39.58 21.11,8.75 21.9,8.56 30.51,35.39 24.45,76.15 2.63,55 126.93,59.55z"/>
   </g>
  </g>
 </g>
</svg>
