<?xml version="1.0" encoding="UTF-8"?>
<!DOCTYPE svg PUBLIC "-//W3C//DTD SVG 1.1//EN" "http://www.w3.org/Graphics/SVG/1.1/DTD/svg11.dtd">
<!-- Creator: CorelDRAW (Versión de evaluación) -->
<svg xmlns="http://www.w3.org/2000/svg" xml:space="preserve" width="72mm" height="72mm" version="1.1" style="shape-rendering:geometricPrecision; text-rendering:geometricPrecision; image-rendering:optimizeQuality; fill-rule:evenodd; clip-rule:evenodd"
viewBox="0 0 7200 7200"
 xmlns:xlink="http://www.w3.org/1999/xlink"
 xmlns:xodm="http://www.corel.com/coreldraw/odm/2003">
 <defs>
  <style type="text/css">
   <![CDATA[
    .fil0 {fill:#BE0002}
    .fil1 {fill:#FC0000}
   ]]>
  </style>
 </defs>
 <g id="Capa_x0020_1">
  <metadata id="CorelCorpID_0Corel-Layer"/>
  <path class="fil0" d="M3831.37 1570.84c298.68,51.88 561.84,317.92 661.29,549.54 283.32,659.78 -221.67,1347.25 -901.91,1331.46 -180.48,-4.18 -335.59,-60 -464.86,-135.5 -203.04,-118.58 -260.39,-249.27 -306.71,-288.07 33.21,145.79 5.11,109.53 -53.99,198.32 -17.81,26.76 -29.37,62.01 -49.95,91.44 -25.14,35.95 -31.06,28.85 -53.94,74.81 -13.45,27.01 -9.94,21.31 -26.22,44.97 -14.26,20.72 -14.95,23.53 -26.35,43.8l-78.8 122.14c-12.17,16.66 -17.32,25.36 -27.54,42.35 -91.24,151.78 -195.52,300.24 -296.74,443.93l-190.03 280.66c58.56,124.41 130.95,245.25 200.1,366.72 68.66,120.58 138.34,236.8 209.74,351.2 110.36,176.82 264.9,426.82 384.31,596.9 22.15,31.55 33.79,58.36 63.43,81.01 -9.44,-46.22 -17.55,-24.15 -24.36,-70.89 22.5,-18.7 44.51,-21.65 73.39,-38.96 170.02,-101.91 327.7,-180.31 498.21,-272.55 99.95,-54.07 193.44,-99.86 286.2,-152.83l212.47 -118.06c27.59,-15.21 52.22,-20.62 76.28,-35.13 30.92,-18.65 32.58,-24.86 66.97,-42.41 28.96,-14.78 42.26,-25.98 68.19,-40.4l361.42 -190.5c42.12,-20.08 38.06,-6.53 77.29,-33.48 49.79,-34.21 26.72,-6 78.06,-42.31l512.81 -272.16 -9.69 54.1c100.49,-100.47 425.97,-854.35 495.5,-1035.83 164.45,-429.27 239.61,-809.06 149.34,-1314.21 -105.43,-589.97 -446.71,-1103.68 -892.36,-1422.19 -108.93,-77.86 -355.81,-232.09 -506.87,-271.23 32.83,33.49 84.1,54.15 127.61,71.63 -10.81,56.32 -117.02,194.14 -163.16,267.5l-303.98 456.92c-14.95,21.82 -20.36,42.91 -34.34,66.89l-23.91 37.36c-8.99,14.34 -11.71,18.63 -19.5,29.93 -26.36,38.23 -72.86,128.06 -108.18,150.57l-39.22 22.56z"/>
  <path class="fil1" d="M2015.62 4370.69l190.03 -280.66c101.22,-143.69 205.5,-292.15 296.74,-443.93 10.22,-16.99 15.37,-25.69 27.54,-42.35l78.8 -122.14c11.4,-20.27 12.09,-23.08 26.35,-43.8 16.28,-23.66 12.77,-17.96 26.22,-44.97 22.88,-45.96 28.8,-38.86 53.94,-74.81 20.58,-29.43 32.14,-64.68 49.95,-91.44 59.1,-88.79 87.2,-52.53 53.99,-198.32 -20.97,-86.84 -161.67,-220.47 -153.7,-557.12 8.79,-371.22 240.48,-700.56 575.24,-850.34 161.15,-72.11 409.11,-109.84 590.65,-49.97l39.22 -22.56c35.32,-22.51 81.82,-112.34 108.18,-150.57 7.79,-11.3 10.51,-15.59 19.5,-29.93l23.91 -37.36c13.98,-23.98 19.39,-45.07 34.34,-66.89l303.98 -456.92c46.14,-73.36 152.35,-211.18 163.16,-267.5 -43.51,-17.48 -94.78,-38.14 -127.61,-71.63 -159.86,-95.53 -588.06,-150.93 -815.15,-147.37 -784.23,12.28 -1464.12,457.29 -1847.02,1085.33 -246.15,403.74 -404.95,1008.11 -282.29,1582.88 56.12,262.98 155.92,488.99 250.09,721.51 92.5,228.39 202.91,451.96 313.94,660.86z"/>
  <path class="fil1" d="M2873.2 5766.52c12.07,57.03 578.35,841.05 702.93,1025.79 29.57,43.84 27.01,48.54 54.92,63.65 113.82,-129.64 1073.44,-1588.85 1161.54,-1731.18 56.65,-91.5 341.31,-547.58 357.85,-613.84l9.69 -54.1 -512.81 272.16c-51.34,36.31 -28.27,8.1 -78.06,42.31 -39.23,26.95 -35.17,13.4 -77.29,33.48l-361.42 190.5c-25.93,14.42 -39.23,25.62 -68.19,40.4 -34.39,17.55 -36.05,23.76 -66.97,42.41 -24.06,14.51 -48.69,19.92 -76.28,35.13l-212.47 118.06c-92.76,52.97 -186.25,98.76 -286.2,152.83 -170.51,92.24 -328.19,170.64 -498.21,272.55 -28.88,17.31 -50.89,20.26 -73.39,38.96 6.81,46.74 14.92,24.67 24.36,70.89z"/>
 </g>
</svg>
