<?xml version="1.0" encoding="UTF-8"?>
<!DOCTYPE svg PUBLIC "-//W3C//DTD SVG 1.1//EN" "http://www.w3.org/Graphics/SVG/1.1/DTD/svg11.dtd">
<!-- Creator: CorelDRAW (Versión de evaluación) -->
<svg xmlns="http://www.w3.org/2000/svg" xml:space="preserve" width="35mm" height="35mm" version="1.1" style="shape-rendering:geometricPrecision; text-rendering:geometricPrecision; image-rendering:optimizeQuality; fill-rule:evenodd; clip-rule:evenodd"
viewBox="0 0 3500 3500"
 xmlns:xlink="http://www.w3.org/1999/xlink"
 xmlns:xodm="http://www.corel.com/coreldraw/odm/2003">
 <defs>
  <style type="text/css">
   <![CDATA[
    .fil0 {fill:#EE267A}
    .fil1 {fill:#EE267A}
   ]]>
  </style>
 </defs>
 <g id="Capa_x0020_1">
  <metadata id="CorelCorpID_0Corel-Layer"/>
  <g id="_1677452372880">
   <path class="fil0" d="M228.12 958.87c63.24,317.84 169.84,694.47 317.76,984.02 138.17,270.47 311.23,467.34 513.51,651.7 211.82,193.06 415.22,353.42 641.74,479.03 137.7,76.36 207.6,113.44 379.26,161.01 404.17,111.99 653.74,9.56 986.08,-214.55 27.92,-18.83 113.06,-71.94 130.05,-102.87 -77.03,-44 -582.28,-267.77 -695.8,-321.29l-230.94 -106.94c-45.54,20.28 -88.21,62.88 -182.84,81.52 -96.07,18.92 -196.41,-26.37 -244.83,-65.53 -87.75,-70.99 -98.1,-79.82 -178.21,-160.05 -106.48,-106.64 -212.83,-241.41 -317.89,-365.84l-313.45 -371.36c-129.71,-153.49 -104.66,-335.7 59.89,-448.16 -5.17,-40.13 -198.15,-884.67 -220.31,-940.56 -76.39,-5.01 -249.41,87.89 -306,121.74 -83.17,49.74 -139.93,94.13 -195.81,155.56 -80.73,88.74 -176,292.79 -142.21,462.57z"/>
   <path class="fil1" d="M967.92 194.59c-5.13,30.25 108.56,485.09 125.33,560.67 22.04,99.31 46.67,201.81 70.26,302.55 17.34,74.05 7.91,93.44 93.3,49.49 36.6,-18.84 81.39,-56.6 99.79,-81.17 87,-116.17 72.8,-62.32 35.05,-252.01l-92.02 -431.62c-14.99,-75.98 -14.59,-82.22 -71.66,-106.79 -60.73,-26.14 -169.24,-71.79 -260.05,-41.12z"/>
   <path class="fil1" d="M2326.93 2412.26l109.86 52.86c40.16,19.23 77.07,36.71 115.39,54.99l594.39 285.35c23.02,12.56 62.99,25.25 86.65,43.45 51.3,-22.85 58.71,-93.6 52.45,-154.45 -3.56,-34.51 -12.28,-68.29 -21.66,-101.61 -11.71,-41.58 -30.05,-41.33 -58.78,-55.85 -48.98,-24.75 -92.07,-51.03 -142.09,-72.87 -15.2,-6.64 -18.58,-9.78 -32.68,-17.13l-398.23 -196.82c-30.67,-14.89 -54.62,-9.03 -95.17,5.7 -79.33,28.81 -187.1,89.37 -210.13,156.38z"/>
  </g>
 </g>
</svg>
