<?xml version="1.0" encoding="UTF-8"?>
<!DOCTYPE svg PUBLIC "-//W3C//DTD SVG 1.1//EN" "http://www.w3.org/Graphics/SVG/1.1/DTD/svg11.dtd">
<!-- Creator: CorelDRAW (Versión de evaluación) -->
<svg xmlns="http://www.w3.org/2000/svg" xml:space="preserve" width="72mm" height="42.5mm" version="1.1" style="shape-rendering:geometricPrecision; text-rendering:geometricPrecision; image-rendering:optimizeQuality; fill-rule:evenodd; clip-rule:evenodd"
viewBox="0 0 7200 4250"
 xmlns:xlink="http://www.w3.org/1999/xlink"
 xmlns:xodm="http://www.corel.com/coreldraw/odm/2003">
 <defs>
  <style type="text/css">
   <![CDATA[
    .str0 {stroke:#A9A9AA;stroke-width:7.62;stroke-miterlimit:22.9256}
    .fil13 {fill:#A9A9AA}
    .fil12 {fill:#C4333B}
    .fil9 {fill:#C93876}
    .fil10 {fill:#CD3254}
    .fil11 {fill:#D16F90}
    .fil3 {fill:#D5D799}
    .fil1 {fill:#D5DE25}
    .fil7 {fill:#D6D746}
    .fil2 {fill:#E7E9B7}
    .fil0 {fill:#EA2979}
    .fil8 {fill:#EDCD53}
    .fil5 {fill:#FAF5E7}
    .fil6 {fill:#FDFECC}
    .fil4 {fill:#FEFFB4}
    .fil14 {fill:white}
   ]]>
  </style>
 </defs>
 <g id="Capa_x0020_1">
  <metadata id="CorelCorpID_0Corel-Layer"/>
  <g id="_1471386901296">
   <path class="fil0" d="M1836.83 1538.96c-0.42,-395.81 588.21,-400.76 590.6,-8.42 0.6,99.66 -36.41,161.53 -87.61,209.73 -201.3,189.54 -502.74,27.87 -502.99,-201.31zm519.14 -441.71c-67.33,-16.7 -109.4,-51.11 -199.96,-59.53 -381.63,-35.47 -655.11,407.65 -445.86,743.44 73.66,118.2 159.77,194.38 303.23,230.41 288,72.33 583.97,-121.98 612.42,-433.18 9.11,-99.66 14.45,-1005.39 1.35,-1060.02l-264.69 0.15c-25.24,90.07 2.62,450.49 -6.49,578.73z"/>
   <path class="fil0" d="M3224.42 1234.61c83.22,-28.86 177.65,8.68 231.9,45.2 206.92,139.25 148.15,475.87 -105.9,530.03 -270.12,57.59 -456.17,-256.28 -301.8,-461.58 61.4,-81.66 102.86,-88.36 175.8,-113.65zm-19.64 -207.91c-90.39,14.98 -199.86,55.14 -262.07,122.66 -18.61,20.19 -46.38,44.11 -61.81,65.13 -71.39,97.25 -126.75,235.82 -101.68,392.7 40.64,254.3 272.23,466.98 579.67,425.85 464.65,-62.17 608.33,-697.74 163.99,-955.01 -92.7,-53.68 -211.84,-68.94 -318.1,-51.33z"/>
   <path class="fil0" d="M6057.82 1243.59c45.31,-11.3 106.68,-9.64 151.79,1.46l85.4 41.58c3.33,2.12 12.33,7.74 14.48,9.8 11.64,11.17 2.87,2.15 7.9,12.57 90.06,37.66 148.81,223.72 70.95,364.61 -56.21,101.72 -183.82,180.55 -341.49,140.61 -111.12,-28.15 -214.31,-144.66 -214.5,-283.74 -0.2,-143.19 102.03,-262.62 225.47,-286.89zm-8.45 -216.69c-424.95,70.16 -534.74,560.9 -331.22,802.14 84.7,100.39 15,24.23 97.06,97.26 196.66,175.03 555.1,138.33 709.25,-82.5 84.48,-121.01 129.69,-231.38 104.35,-392.51 -39.15,-248.96 -276.49,-474.41 -579.44,-424.39z"/>
   <path class="fil0" d="M3994.05 1251.05c-23.71,17.77 -52.73,120.02 -41.57,157.78l-2.67 451.84c-0.11,66.22 11.1,73.1 15.42,132.04l225.96 -1.56c5.13,-93.78 0.37,-574.61 14.28,-620.5 31.83,-104.94 206.43,-146.1 236.14,-79.68 31.99,44.18 68.01,27.51 80.15,116.95 18.99,139.95 -13.41,469.15 8.78,601.79l264.17 -0.59c17.07,-49.05 7.43,-423.49 6.35,-504.02 -8.26,-616.62 -680.75,-577.6 -807.01,-254.05z"/>
   <path class="fil0" d="M1177.16 1766.19c-4.21,29.34 0.85,21.34 -23.67,34.52 -36.28,19.5 -73.1,20.56 -106.84,25.05 -123.29,16.37 -74.8,-5.75 -128.26,-5.5 -44.71,0.22 -7.22,-1.11 -32.73,8.71 -18.95,-18.61 -40.8,-22.95 -30.48,-38.55 -63.5,-13.38 -57.14,-37 -97.8,-75.23 -38.18,-35.88 -26.48,-9.79 -42.96,-69.5 -32.17,-116.53 -26.5,-84.08 -9.58,-250.66 -16.11,16.96 7.02,8.81 15.8,15.17l0.55 -57.5c17.55,-14.56 33.59,-19.41 49.97,-36.9 21.15,-22.61 17,-30.25 40.11,-54.43l34.57 4.59c39.32,-2.99 15.65,-19.48 64.87,-20.38 29.96,-24.65 77.89,-24.94 119.18,-22.4 41.3,2.54 75.09,14.68 107.17,30.82 139.11,70.01 193.49,208.95 148.89,362.74 -26.33,90.83 -84.26,108.9 -108.79,149.45zm-234.23 -739.87c-255.5,41.94 -468,276.81 -422.98,580.84 37.31,251.93 278.17,470.96 578.27,426.11 259.2,-38.73 476.4,-281.02 428.22,-585.01 -18.91,-119.33 -97.04,-254.37 -187.1,-320.37 -108.01,-79.16 -224.68,-129.76 -396.41,-101.57z"/>
   <path class="fil0" d="M5040.33 1046.61l-158.33 1.28 -2.34 263.7 161.21 0.32c40.68,185.03 -89.35,513.43 221.58,658.34 85.32,39.76 151.87,44.43 254.08,40.4l2.67 -256.78c-108.14,3.34 -182.92,-30 -196.29,-122 -6.88,-47.3 -8.58,-275.63 -0.08,-319.06l196.26 -1.36 -0.11 -263.59 -193.4 -1.67c-18.42,-15.81 -14.98,-10.58 -14.84,-74.48l2.39 -246.02 -260.75 1.76 1.19 252.75c0.03,3.68 -0.15,42.06 -0.27,42.79 -3.56,23.45 6.11,15.08 -12.97,23.62z"/>
   <path class="fil1" d="M790.19 2891.34l2.87 -21.3c38.29,-16.93 39.74,-37.89 85.96,-39.51l57.12 5.66c157.25,0.87 278.31,149.4 243.89,312.01 -7.36,34.79 -14.21,25.54 -23.04,48.07 -31.33,80.03 -4.1,24.55 -48.89,72.5 -34.4,36.83 5.53,35.18 -121.79,65.28 -37.71,8.92 -79.87,14.54 -117.25,1.98 -66.78,-22.43 -67.24,-27.02 -108.95,-54.4 -67.51,-44.33 -98.48,-151.79 -80.83,-237.63 3.35,-16.3 8.02,-34.22 13.82,-51.25 32.03,-94.16 59.63,-80.15 82.86,-107.52l14.23 6.11zm-254.96 995.57c39.77,6.02 207.62,25.08 212.87,-20.17 1,-8.6 -0.33,-14.93 -0.4,-24.32 -0.14,-19.8 0.37,-39.72 0.53,-59.79 0.77,-94.68 -5.6,-283.97 3.78,-356.43 61.53,10.6 175.68,99.16 341.03,20.17 94.68,-45.24 157.55,-120.09 202.66,-217.27 18.9,-40.7 31.25,-131.02 25.57,-181.8 -8.32,-74.44 -23.18,-102.85 -49.4,-158.25 -36.84,-77.86 -152.45,-170.22 -238.95,-189.95 -230.98,-52.69 -471.91,92.3 -493.94,346.89 -8.31,96.06 -14.91,767.59 -3.75,840.92z"/>
   <path class="fil1" d="M1905.58 2940.1l17.98 16.57c14.01,25.7 18.35,19.64 17.66,52.13 -59.57,9.27 -257.43,9.41 -311.35,-3.72 33.16,-114.43 203.84,-140.85 275.71,-64.98zm-225.58 294.43l-17.22 -25.14c-19.04,-16.76 -20.47,-11.12 -22.22,-43.23 106.94,-18.89 337,19.11 433.8,-9.12 230.42,-67.22 34.78,-438.32 -223.12,-457.77 -477.54,-36 -565.9,534.75 -265.03,712.4 167.09,98.66 344.67,84.57 482.75,-45.88 31.42,-29.68 79.87,-83.42 82.64,-137.31 -29.83,-6.89 -212.17,-19.12 -255.71,15.84 -56.4,45.28 -168.88,39.29 -215.89,-9.79z"/>
   <path class="fil1" d="M2765.26 3340.02c-52.91,-1.2 -169.74,6.21 -202.88,-14.16l-84.99 -40.82c-1.69,-64.33 -17.67,23.07 -62.33,-117.41 -65.55,-206.2 155,-423.56 386.21,-294.24 46.85,26.21 28.76,8.73 56.51,53.94 27.2,44.31 58.43,82.48 56.58,169.44 -1.63,76.15 -42.81,155.01 -86.05,191.12 -42.91,35.83 -75.89,10.64 -63.27,50.83 0.03,0.09 0.36,0.88 0.22,1.3zm75.11 -937.46l0.18 330.45c-69.24,6.81 -267.55,-138.67 -483.91,98.98 -50.33,55.28 -87.52,145.59 -89.59,247.65 -1.87,92.71 30.68,184.35 85.84,252.06 173.25,212.69 501.86,202.5 655.15,-59.24 67.86,-115.87 44.25,-458.7 44.35,-624.36l-0.03 -363.33 -213.52 -4.07 1.53 121.86z"/>
   <path class="fil1" d="M3879.69 2863.46c33.21,2.12 44.62,-5.36 79.49,-4.45 33.87,0.88 40.73,9.27 74.58,6.14 71.38,-13.35 142.42,84.2 154.97,128.26 7.36,25.85 28.12,92.46 22.25,129.17 -1.43,8.99 -21.77,101.2 -41.58,116.46 -60.47,46.59 -18.04,24.5 -48.63,53.55 -34.37,32.64 -15.3,-13.87 -68.58,46.37 -101.83,-4.59 -100.32,28.91 -219.67,-14.38 -56.35,-20.43 -109.13,-95.51 -121.52,-132.39 -18.89,-56.19 -12.57,-187.69 14.86,-227.18 9.74,-14.02 100.29,-113.21 153.83,-101.55zm240.23 550.35c16.22,23.05 9.64,14.96 15.77,47.6l209.3 6.64c6.43,-244.46 37.32,-478.03 -94.37,-637.61 -208.16,-252.21 -613.2,-128.55 -681.97,154.72 -49.03,201.93 61.8,411.24 256.34,474.01 145.77,47.04 190.81,-3.84 294.93,-45.36z"/>
   <path class="fil1" d="M6486.79 2971.36c7.2,63.64 21.7,170.47 -8.48,224.35 -15.55,27.77 -25.94,56.94 -50,74.71l-35.05 25.32c-13.17,11.63 -18.63,15.4 -39.84,23.3 -57.75,21.5 -156.35,25.67 -220.84,0.57 -128.61,-50.06 -170.42,-235.67 -120.15,-349.91l60.44 -70.5c49.9,-49.16 107.52,-71.93 180.9,-68.96 73.98,2.99 71.58,2.26 105.44,23.9 45.86,29.3 44.25,10.52 73.27,53.97 16.09,24.08 37.04,46.94 54.31,63.25zm162.78 495.92c-8.48,-267.62 50.65,-470.05 -107.22,-642.43 -157.4,-171.88 -403.49,-159.04 -538.03,-44.79 -329.39,279.72 -49.86,767.5 298.98,686.12 85.65,-19.98 80.25,-46.82 126.58,-54.53l11.11 55.36 208.58 0.27z"/>
   <path class="fil1" d="M1836.83 1538.96c0.25,229.18 301.69,390.85 502.99,201.31 51.2,-48.2 88.21,-110.07 87.61,-209.73 -2.39,-392.34 -591.02,-387.39 -590.6,8.42z"/>
   <path class="fil1" d="M3224.42 1234.61c-72.94,25.29 -114.4,31.99 -175.8,113.65 -154.37,205.3 31.68,519.17 301.8,461.58 254.05,-54.16 312.82,-390.78 105.9,-530.03 -54.25,-36.52 -148.68,-74.06 -231.9,-45.2z"/>
   <path class="fil1" d="M4562.62 3226.07c-6.66,40.9 22.46,91.56 44.13,120.82 21.16,28.59 56.26,61.58 91.94,73.62 75.39,-1.32 112.18,56.72 208.68,23.5l0 -160.96c-44.25,-2.12 -52.6,-10.58 -89.54,-14.29l-8.02 -21.97c-14.43,-17.79 -24.22,-14.37 -37.58,-49.63 -10.65,-28.14 -11.32,-58.71 -11.78,-91.86 -0.91,-64.24 6.4,-131.25 -1.37,-194.12 14.84,-15.97 -1.6,-19.03 63.61,-17.72 89.31,1.78 54.79,-2.08 84.68,-8.3l0 -169.37c-189.98,0 -163.83,41.96 -160.64,-247.19 -48.95,-27.35 -113.34,-19.08 -179.21,-21.27 -16.78,56.58 -4.68,184.85 -6.89,251.57 -53.45,35.45 -65.32,13.41 -130.52,20.45l3.04 171.59c57.68,-0.57 72.32,-7.23 124.1,8.74 5,31.21 9.4,301.26 5.37,326.39z"/>
   <path class="fil1" d="M6057.82 1243.59l0.05 23.67c-38.26,3.8 -14.24,0.61 -28.57,6.9 -6.4,2.81 -17.28,8.73 -29.15,13.8 -111.38,47.6 -191.79,205.22 -115.24,365.99 27.04,56.78 126.96,128.75 175.35,141.52 149.37,39.44 204.3,-43.38 252.57,-55.91 19.32,-38.2 12.64,-22.22 33.85,-48.35 82.36,-101.49 70.61,-221.76 1.85,-327.28 -17.86,-27.4 -22.3,-4.44 -31.14,-54.93 -5.03,-10.42 3.74,-1.4 -7.9,-12.57 -2.15,-2.06 -11.15,-7.68 -14.48,-9.8l-85.4 -41.58c-45.11,-11.1 -106.48,-12.76 -151.79,-1.46z"/>
   <path class="fil1" d="M845.84 1265.96l-100.5 127.3c10.52,55.03 -35.19,111.07 -5.04,193.31l16.9 48.13c26.97,61.08 116.09,133.32 171.27,148.11 63.85,17.11 169.46,32.97 192.84,-42.21l59.55 -6.93c1.62,-0.57 6.15,-2.46 7.37,-3.48l20.99 -28.21c14.93,-15.33 5.12,2.3 16.7,-18.82 9.02,-16.45 8.57,-29.34 9.67,-51.06 10.09,-5 5.54,-1.89 14.78,-6.28 39.65,-18.84 34.79,-122.41 26.1,-162.5 -11.34,-52.27 -18.32,-11.37 -45.03,-92.37 -0.64,-1.94 -2.77,-3.23 -3.26,-7.33l-55.68 -62.1c-21.63,-19.57 -40.71,-15.08 -70.62,-37.57 -69.39,-52.16 -121.47,-1.94 -191.17,-18.37 -49.22,0.9 -25.55,17.39 -64.87,20.38z"/>
   <path class="fil0" d="M2887.18 3147.63c75.06,-303.68 -382.76,-410.5 -455.08,-113.85 -35.77,146.72 62.36,257.54 169.43,285.21 143.84,37.19 258.92,-63.18 285.65,-171.36z"/>
   <path class="fil0" d="M3879.69 2863.46c-14.1,17.67 3.1,4.12 -25.09,19.1 -194.13,103.16 -164.48,339.22 -9.39,421.53 140.22,74.41 301.95,-16.14 335.24,-145.53 14.07,-54.68 7.14,-129.88 -12.54,-152.94 -27.19,-10.31 -22.54,27.44 -22.54,-11.52 -12.07,6.3 -27.97,-43.8 -47.2,-62.69l-88.27 -37.82c16.01,-28.55 -22.74,-30.08 23.86,-21.33l0 -7.11c-33.85,3.13 -40.71,-5.26 -74.58,-6.14 -34.87,-0.91 -46.28,6.57 -79.49,4.45z"/>
   <path class="fil0" d="M6033.67 3000.14c0.59,55.71 -16.16,85.12 0.76,147.01 14.19,51.94 109.46,161.17 193.28,160.1l51.97 -1.06c20.11,3.64 12.64,0.46 23.36,10.19 83.28,-37.92 127.82,-57.86 162.13,-143.39 74.58,-185.94 -103.04,-359.94 -266.79,-317.67 -70.36,18.16 -159.46,80.84 -164.71,144.82z"/>
   <path class="fil0" d="M790.19 2891.34l-12.62 20.85c-0.69,1.05 -2.53,3.24 -3.14,4.21 -0.57,0.91 -1.89,3.65 -2.33,4.4 -0.44,0.73 -1.32,3 -1.8,4.56 -2.72,53.13 -59.03,64.02 -54.41,180.18 2.24,56.44 25.69,117.83 86.01,133.44 6.89,28.57 9.53,39.12 33.67,50.22 46.68,21.46 128.89,38.13 169.49,-3.41l37.86 3.16c112.7,1.57 222.66,-358.51 -56.98,-428.3 -39.46,-9.85 -62.84,-8.48 -100.38,-0.5 -39.53,8.39 -67.82,28.46 -95.37,31.19z"/>
   <path class="fil1" d="M5103.72 2816.69l-2.66 26.08c2.04,1.57 4.21,1.98 4.95,4.61l20.49 12.56c-46.35,22.22 -11.96,-0.6 -33.03,28.23 -11.7,16.01 -16.3,11.8 -29.51,35.74 -28.76,118.98 3.01,474.11 -12.87,519.47 70.49,13.56 107.16,8.87 178.82,11.73 26.25,-180.12 -56.15,-512.52 67.37,-556.28 23.27,-8.24 51.7,-7.24 86.11,-18.57l0.03 -143.44c-44.27,-34 -68.81,-7.34 -118.48,-16.61 -41.41,-0.4 -60.89,15.3 -92.18,32.82 -28.3,15.83 -18.07,10.36 -37.54,29.68 -15.62,15.48 -21.69,12.19 -31.5,33.98z"/>
   <path class="fil1" d="M3387.79 2705.88l-45.08 0.51c-25.85,17.8 -4.16,7.09 -52.41,6.26 -23.04,-0.39 -34.25,1.66 -56.86,6.31l21.63 6.74 -24.42 15.53c12.11,184.82 -8.35,496.39 2.2,643.97 2.34,32.79 2.54,16.46 7.5,31.61 2.89,8.81 5.08,18.25 9.07,29.98 29.01,5.42 134.19,7 153.99,-5.9 25.35,-19.55 10.93,-302.15 10.8,-335.59 -0.46,-121.3 1.55,-242.8 0.34,-364.07 -28.2,-22.56 -12.27,-4.99 -26.76,-35.35z"/>
   <path class="fil1" d="M5626.87 3453.83c27.03,1.18 66.99,-5.66 85.28,-15.88l2.84 -696.72 -31.17 -25.52c-0.98,-3.35 -4.03,-3.21 -6.03,-4.84 -23.18,6.78 -67.39,0.16 -129.43,4.35 2.24,1.9 -9.59,19.57 22.16,8.31l-39.1 9.62 3.14 717.87c33.85,8.69 52.62,1.08 92.31,2.81z"/>
   <path class="fil2" d="M6049.37 1026.9c302.95,-50.02 540.29,175.43 579.44,424.39 25.34,161.13 -19.87,271.5 -104.35,392.51 -154.15,220.83 -512.59,257.53 -709.25,82.5 -82.06,-73.03 -12.36,3.13 -97.06,-97.26 -203.52,-241.24 -93.73,-731.98 331.22,-802.14zm-424.81 295.23l-16.79 58.77c-4.79,16.98 -8.61,32.4 -11.01,47.29 -5.81,36.01 -5.34,82.27 -5.93,119.47 -1.44,90.1 40.54,223.64 95.07,288.69l27.41 38.98c16.54,18.05 13.55,7.4 30.45,29.08 5.99,7.68 5.49,10.25 14.99,19.56 47.84,46.89 119.68,84.27 181.2,108.17 174.8,67.9 405.31,31.1 545.65,-99.84l33.81 -32.87c27.07,-22.43 32.61,-42.53 51.19,-69.88l14.88 -19.74c10.01,-11.55 1.93,-4.1 12.3,-10.01 27.91,-18.43 34.63,-52.03 49.86,-90.86 13.56,-34.54 26.25,-73.83 29.04,-118.95 8.67,-140.25 -11.58,-211.99 -62.74,-324.89 -1.04,-2.31 -4.05,-8.78 -5.27,-11.06l-36.56 -50.13c-48.2,-61.58 -67.4,-69.83 -108.39,-112.33 -1.15,-1.18 -2.49,-3.3 -3.66,-4.51 -66.46,-68.95 -224.05,-107.21 -316.62,-106.89 -128.16,0.43 -237.34,20.28 -333.42,97.58 -108.62,87.38 -38.2,2.38 -142.82,146.35 -19.29,26.54 -55.21,62.77 -42.64,98.02z"/>
   <path class="fil3" d="M4365.58 3486.68c-39.41,11.1 -193.08,3.52 -247.63,0.96l-13.52 -35.13c-56.32,21.78 -78.18,37.1 -141.24,44.27 -95.52,10.86 -235.2,-36.96 -282.61,-96.1 -57.25,-71.41 -44.42,-20.85 -88.91,-105.69 -166.05,-316.66 70.01,-666.36 431.79,-619.15 94.39,12.32 213.8,93.45 250.36,139.7 27.24,34.46 49.35,82.09 67,126.96 44.49,113.07 35.91,517.19 24.76,544.18zm159.06 -1065.95c59.43,-3.27 209.12,-12.98 258.55,3.24l-1.77 254.14 161.49 5.23 2.12 247.95 -163.61 0.22c2.88,317.57 -14.61,286.41 160.93,316.11l3.98 238.72c-57.4,13.75 -160.03,4.09 -215.1,-19.82 -218.75,-94.95 -218.62,-283.08 -205.82,-534.2l-132.69 2.29 -0.58 -255.39 130.72 -2.41 1.78 -256.08zm253.3 1077.89l188.51 14.25c-13.94,-52.23 -7.86,-222.97 -5.39,-285.24 -74.82,0.15 -143.9,5.43 -157.86,-66.41 -3.92,-20.21 -2.3,-186.79 1.36,-210.58l156.92 -2.33 3.91 -286.8 -163.56 -1.98 -2.58 -258.14 -293.73 0.34 -0.85 259.06 -128.79 6.54 -8.16 263.11c-14.15,-14.1 2.95,6.96 -14.71,-15.13l-21.06 -38.57c-53.07,-115.47 -203.18,-212.72 -338.47,-222.14 -87.9,-6.12 -198.27,10.86 -266.07,58.04 -367.72,255.92 -205.7,694.12 86.24,786.14 156.91,49.46 194.64,-2.3 272.41,-13.26 9.8,13.71 -4.65,24.97 67.67,23.82 25.51,-0.4 50.66,-0.94 76.26,-1.04 53.6,-0.2 109.03,2.47 160.32,-5.87 -0.67,-102.16 7.68,-392.25 -11.79,-484.95 -6.23,-29.67 -9.15,-35.38 0.25,-59.92 33.31,-13.37 83.75,-6.08 127.01,-5.56 1.17,125.18 -17.1,277.98 43.23,375.64 51.77,83.79 109.1,151 228.93,170.98z"/>
   <path class="fil3" d="M1854.63 3215.36c-33.02,38.82 -112.91,24.99 -137.52,-6.28l137.52 6.28zm-1344.04 702.03c-3.9,-123.42 -7.1,-800.53 6.47,-887.06 21.04,-134.08 34.84,-129.75 80.87,-195.69 131.04,-187.71 407.18,-216.35 575.66,-93.75l54.66 55.33c110.93,104.19 141.04,254.96 96.42,418.65 -10.12,37.16 -60.46,128.03 -77.76,141.71 -18.1,14.32 -17.15,9.03 -32.85,26.22 -50.73,55.56 -11.2,22.07 -89.43,71.48 -149.96,94.71 -292.35,14.57 -356.17,11.06l-2.7 448.59 -255.17 3.46zm1695.65 -732.57l-67.47 1.39c17.62,-35.54 3.79,-9.01 23.59,-32.31 58.09,-68.38 75.23,-163.48 25.5,-218.75 4.12,65.32 26.46,109.38 -7.17,169.14 -23.71,42.13 -55.59,65.22 -109.49,76.81 -91.84,19.76 -363.47,-3.25 -379.11,7.67 -1.46,1.02 -4.39,2.94 -6.1,4.15 -12.18,8.6 -10.96,22.75 -17.11,12.52 -1.02,-1.69 -4.01,2.73 -6.1,3.95l17.22 25.14c7.29,-29.86 -15.31,-4.85 13.32,-22.03 27.36,30.93 60.47,40.2 115.52,38.6 67.92,-1.97 59.76,-29.06 98.3,-46.97 15.47,-7.19 266.42,-5.2 283.31,-0.15 -2.87,4.79 -15.7,69.72 -69.2,138.26 -18.77,24.04 -30.92,35.86 -53,56.13 -124.59,114.43 -358.11,135.93 -490.17,39.02 -17.22,-12.63 -10.12,-13.87 -31.26,-28.37 -10.71,-7.34 -21.73,-12.82 -30.59,-19.8 -29.58,-23.27 -71.11,-87.02 -90.67,-129.44 -50.32,-109.11 -46.08,-312.96 5.74,-350.45 6.01,-59.81 6.6,-15.17 -18.17,-32.59l-44.87 129.99c-23.32,-15 -2.81,19.44 -26.48,-60.1 -66.45,-223.27 -330.92,-354.89 -544.35,-278.56 -314.43,112.46 -303.58,359.13 -303.28,640.43 0.11,97.84 -7.37,569.22 3.88,624.62l283.76 0.92c28.13,-111.12 -8.35,-322.12 9.17,-441.23 75.55,13.77 119.6,37.07 213.6,23.85 176.4,-24.82 323.33,-187.87 362.15,-378.17l24.87 78.27c8.53,28.93 12.55,46.36 25.46,68.28 79.29,134.65 189.74,221.13 348.96,232.21 295.47,20.57 459.84,-251.67 440.24,-332.43z"/>
   <path class="fil4" d="M1413.13 2876.74c24.77,17.42 24.18,-27.22 18.17,32.59 -51.82,37.49 -56.06,241.34 -5.74,350.45 19.56,42.42 61.09,106.17 90.67,129.44 8.86,6.98 19.88,12.46 30.59,19.8 21.14,14.5 14.04,15.74 31.26,28.37 132.06,96.91 365.58,75.41 490.17,-39.02 22.08,-20.27 34.23,-32.09 53,-56.13 53.5,-68.54 66.33,-133.47 69.2,-138.26 -16.89,-5.05 -267.84,-7.04 -283.31,0.15 -38.54,17.91 -30.38,45 -98.3,46.97 -55.05,1.6 -88.16,-7.67 -115.52,-38.6 -28.63,17.18 -6.03,-7.83 -13.32,22.03 47.01,49.08 159.49,55.07 215.89,9.79 43.54,-34.96 225.88,-22.73 255.71,-15.84 -2.77,53.89 -51.22,107.63 -82.64,137.31 -138.08,130.45 -315.66,144.54 -482.75,45.88 -300.87,-177.65 -212.51,-748.4 265.03,-712.4 257.9,19.45 453.54,390.55 223.12,457.77 -96.8,28.23 -326.86,-9.77 -433.8,9.12 1.75,32.11 3.18,26.47 22.22,43.23 2.09,-1.22 5.08,-5.64 6.1,-3.95 6.15,10.23 4.93,-3.92 17.11,-12.52 1.71,-1.21 4.64,-3.13 6.1,-4.15 15.64,-10.92 287.27,12.09 379.11,-7.67 53.9,-11.59 85.78,-34.68 109.49,-76.81 33.63,-59.76 11.29,-103.82 7.17,-169.14 49.73,55.27 32.59,150.37 -25.5,218.75 -19.8,23.3 -5.97,-3.23 -23.59,32.31l67.47 -1.39c-17.59,-27.03 -11.55,-12.91 -14.49,-52.52l40.65 4.28c-3.06,-98.46 -5.65,-132.48 29.76,-224.2 -47.62,26.78 -16,-0.42 -47.24,35.31 -24.3,-25.08 -17.11,-24.4 -28.96,-56.02 -19.3,-51.51 -43.16,-68.01 -68.9,-103.53 -30.68,-42.33 -93.9,-79.34 -148.18,-100.9 -28.51,-11.33 -31.65,-17.92 -59.77,-25.29 -63.77,-16.73 -165.43,-13.37 -224.43,1.9 -25.05,6.48 -39.57,12.27 -65.27,21.71 -45.74,16.79 -15.76,4.29 -49.29,28.11 -29.47,20.94 -110.75,88.55 -128.65,119.06 -14.98,25.53 -4.45,18.92 -28.34,44.01z"/>
   <path class="fil5" d="M5040.33 1046.61l5.33 -328.22 275.35 2.6 4.57 325.2 193.4 1.67 0.11 263.59 -196.26 1.36c-8.5,43.43 -6.8,271.76 0.08,319.06 13.37,92 88.15,125.34 196.29,122l-2.67 256.78c-102.21,4.03 -168.76,-0.64 -254.08,-40.4 -310.93,-144.91 -180.9,-473.31 -221.58,-658.34l-161.21 -0.32 2.34 -263.7 158.33 -1.28zm332.67 627.78c2.38,-2.02 7.09,-6.73 8.3,-4.31l4.57 -20.83c-1.29,-2.36 -9.77,23.17 -8.96,-50.68 0.84,-77.34 -4.59,-164.95 4.55,-237.45l143.93 0c66.9,-3.42 8.5,3.01 33.82,-15.6l-194.64 3.34c23.78,-19.76 -39.86,-17.06 84.64,-17.72 26.11,-0.14 52.63,0.15 78.49,-2.11 23.8,-37.81 15.82,-244.72 7.82,-302.25l-193.73 -3.42c-3.54,-102.04 10.31,-219.94 -5.69,-320.41 -42.05,-11.53 -263.54,-9.88 -310.1,0.6l-3.43 297.88c4.07,2.98 11.31,-5.67 -10.2,23.87l-153.74 6.33 0.62 292.6c52.34,21.88 111.52,-1.41 165.22,13.83 -7.42,89.32 2.19,210.03 3.47,302.8 3.71,269.1 254.9,435.62 509.64,386.58l-3.72 -289.47c-62.81,-8.49 -68.08,3.6 -126.04,-22.48 -84.09,-37.83 -65.76,-129.72 -65.06,-218.86l2.47 -133.6c0.18,-3.74 1.58,-4.53 2.36,-6.8 10.19,15.6 9.51,4.06 10.83,38.29 0.42,10.67 -0.94,30.77 -1.02,42.85 -0.6,89.63 -6.1,155.02 15.6,237.02z"/>
   <path class="fil5" d="M2355.97 1097.25c9.11,-128.24 -18.75,-488.66 6.49,-578.73l264.69 -0.15c13.1,54.63 7.76,960.36 -1.35,1060.02 -28.45,311.2 -324.42,505.51 -612.42,433.18 -143.46,-36.03 -229.57,-112.21 -303.23,-230.41 -209.25,-335.79 64.23,-778.91 445.86,-743.44 90.56,8.42 132.63,42.83 199.96,59.53zm-725.07 278.49c6.23,63.76 -14.19,134.29 -7.13,205.92 6.36,64.54 18.05,109.39 42.36,160.45 44.38,93.22 59.15,113.38 127.49,176.2 46.06,42.33 140.78,99.02 194.51,109.2 108.83,20.64 245.33,31.42 348.26,-19.56l128.44 -74.58c38.57,-31.69 66.96,-68.78 96.29,-107.44 8.95,-11.8 12.3,-19.48 19.59,-30.94l48.82 -105.13c38.57,-116.4 28.84,-1147.59 17.24,-1183.87 -43.55,-22.06 -246.58,-7.15 -307.65,-4.23 -13.28,51.69 5.43,451.01 -3.95,565.13 -36.92,-7.33 -28.99,-16.46 -55.9,-25.29 -134.95,-44.26 -278.15,-30.56 -398.12,36.51 -76.85,42.96 -166.99,132.27 -205.96,208.62 -8.91,17.45 -17.11,28.97 -22.55,45.23 -8.1,24.2 -0.95,27.96 -21.74,43.78z"/>
   <path class="fil3" d="M4274.99 1348.09c-59.65,39.81 -39.87,235.22 -39.53,317.87 0.48,120.39 2.7,241.29 -1.69,361.2 -56.53,11.09 -259.27,11.33 -314.56,0.21 -0.02,-186.86 -19.36,-555.27 26.74,-730.08 11.71,-44.4 20.83,-44.43 34.49,-74.36 25.04,-46.71 86.38,-109.77 125.72,-137.76 290.99,-207 731.5,-33.64 716.18,419.93 -3.08,91.25 11.53,470.55 -5.12,518.69 -30.23,12.73 -113.69,7.73 -155.43,7.71 -49.65,-0.03 -106.08,1.5 -154.59,-2.96 -7.68,-172.64 2.87,-350.2 -3.38,-515.04 -5.43,-143.4 -3.75,-56.38 -14.81,-149.92l-15.75 -1.68 -0.35 -21.56c-37.11,-22.12 -54.87,-44.51 -107.51,-41.79 -66.45,3.43 -76.85,34.09 -90.41,49.54zm198.27 13.81c29.24,260.12 -1.65,480.65 14.97,687.79 27.77,1.44 319.31,12.36 339.77,-6.87 24.87,-23.37 11.46,-317.32 11.13,-368.39 -0.77,-117.42 9.39,-257.34 -22.28,-356.34 -35.53,-111.06 -69.64,-160.95 -150.91,-231.7 -69.69,-60.68 -164.54,-101.8 -292.02,-102.73 -209.22,-1.53 -380.38,120.13 -449.01,319.33 -33.79,98.06 -33.4,610.66 -22.51,743.05l344.52 2.81c18.22,-47.99 5.73,-555.09 11.35,-663 30.28,-14.69 74.9,-121.37 184.77,-42.87 25.59,18.28 2.4,9.49 30.22,18.92z"/>
   <path class="fil4" d="M2838.84 2280.7l213.52 4.07 0.03 363.33c-0.1,165.66 23.51,508.49 -44.35,624.36 -153.29,261.74 -481.9,271.93 -655.15,59.24 -55.16,-67.71 -87.71,-159.35 -85.84,-252.06 2.07,-102.06 39.26,-192.37 89.59,-247.65 216.36,-237.65 414.67,-92.17 483.91,-98.98l-0.18 -330.45 -1.53 -121.86zm-599.08 921.33l15.46 38.19c6.78,-27.78 -4.91,-7.74 13.22,-24.23 13.66,60.3 67.9,143.38 115.88,185.53 90.83,79.78 220.23,117.1 342.35,96.24 104.46,-17.84 46.97,-6.95 109.32,-34.48 68.01,-30.03 61.97,-28.26 104.72,-73.11l21.05 -20.67c145.8,-132.72 113.2,-345.61 114.09,-535.14 0.44,-93.56 10.96,-524.02 -5.8,-579.36l-253.17 2.32 -1.23 448.61c-94.27,-22.32 -139.01,-50.74 -256.37,-24.98 -90.59,19.88 -125.04,54.77 -156.52,78.74 -1.95,1.49 -7.96,5.41 -9.95,6.89 -9.41,7 -8.28,6.01 -18.8,15.07 -45.35,39.07 -93.24,102.75 -113.64,181.89 -32.63,126.64 -10.01,138.91 0.3,258.1 -25.5,-37.61 0.08,38.91 -14.27,-13.07 -1.14,-4.16 -5.05,-3.87 -6.64,-6.54z"/>
   <path class="fil4" d="M535.23 3886.91c-11.16,-73.33 -4.56,-744.86 3.75,-840.92 22.03,-254.59 262.96,-399.58 493.94,-346.89 86.5,19.73 202.11,112.09 238.95,189.95 26.22,55.4 41.08,83.81 49.4,158.25 5.68,50.78 -6.67,141.1 -25.57,181.8 -45.11,97.18 -107.98,172.03 -202.66,217.27 -165.35,78.99 -279.5,-9.57 -341.03,-20.17 -9.38,72.46 -3.01,261.75 -3.78,356.43 -0.16,20.07 -0.67,39.99 -0.53,59.79 0.07,9.39 1.4,15.72 0.4,24.32 -5.25,45.25 -173.1,26.19 -212.87,20.17zm-24.64 30.48l255.17 -3.46 2.7 -448.59c63.82,3.51 206.21,83.65 356.17,-11.06 78.23,-49.41 38.7,-15.92 89.43,-71.48 15.7,-17.19 14.75,-11.9 32.85,-26.22 17.3,-13.68 67.64,-104.55 77.76,-141.71 44.62,-163.69 14.51,-314.46 -96.42,-418.65l-54.66 -55.33c-168.48,-122.6 -444.62,-93.96 -575.66,93.75 -46.03,65.94 -59.83,61.61 -80.87,195.69 -13.57,86.53 -10.37,763.64 -6.47,887.06z"/>
   <path class="fil3" d="M1630.9 1375.74c20.79,-15.82 13.64,-19.58 21.74,-43.78 5.44,-16.26 13.64,-27.78 22.55,-45.23 38.97,-76.35 129.11,-165.66 205.96,-208.62 119.97,-67.07 263.17,-80.77 398.12,-36.51 26.91,8.83 18.98,17.96 55.9,25.29 9.38,-114.12 -9.33,-513.44 3.95,-565.13 61.07,-2.92 264.1,-17.83 307.65,4.23 11.6,36.28 21.33,1067.47 -17.24,1183.87l-48.82 105.13c-7.29,11.46 -10.64,19.14 -19.59,30.94 -29.33,38.66 -57.72,75.75 -96.29,107.44l-128.44 74.58c-102.93,50.98 -239.43,40.2 -348.26,19.56 -53.73,-10.18 -148.45,-66.87 -194.51,-109.2 -68.34,-62.82 -83.11,-82.98 -127.49,-176.2 -24.31,-51.06 -36,-95.91 -42.36,-160.45 -7.06,-71.63 13.36,-142.16 7.13,-205.92zm0 0c-10.13,5.26 -16.59,-17.03 -25.07,79.56 -2.95,33.67 -4.08,66.81 -3.04,100.62 2.26,73.26 9.83,119.68 35.91,177.41 22.13,48.97 53.22,94.81 81.09,131.14l108.03 104.45c31.41,29.22 85.91,49.27 135.32,68.71 131.35,51.68 247.81,24.71 361.22,-8.71 26.51,-7.81 49.86,-13.92 71.89,-29.04 33.61,-23.06 109.69,-69.69 132.78,-102.97 4.3,-6.2 6.55,-9.37 11.33,-15 43.89,-51.71 71.25,-105.34 94.81,-169.09 42.9,-116.06 35.82,-266.24 32.78,-393.99 -6.64,-279.53 1.99,-564.55 1.59,-844.05 -107.2,9.02 -331.93,-14.1 -355.47,20.51 -21.82,2.23 2.89,-6.12 6.71,35.04l-2.89 475.23c-11.47,70.97 -49.77,-30.23 -306.21,-4.43l-146.83 61.33c-73.5,38.51 -248.19,215.46 -233.95,313.28z"/>
   <path class="fil4" d="M4759.08 2911.18c7.77,62.87 0.46,129.88 1.37,194.12 0.46,33.15 1.13,63.72 11.78,91.86 13.36,35.26 23.15,31.84 37.58,49.63l111.99 25.63 0.94 193.62c-47.56,3.68 -85.09,2.6 -129.35,-4.33 -19.05,-2.98 -37.21,-8.09 -51.41,-14.24l-43.29 -26.96c-35.68,-12.04 -70.78,-45.03 -91.94,-73.62 -21.67,-29.26 -50.79,-79.92 -44.13,-120.82 -37.45,-49.66 -6.32,-196.32 -20.32,-313.32 -167.41,-13.47 -124.53,41.83 -127.07,-208.29l129.16 -5.52 3.27 -257.39 213.17 -0.78 7.5 252.68c29.16,17.76 38.64,10.87 79.75,10.58 23.41,-0.17 48.07,-0.01 74.59,0.35l-1.38 206 -162.21 0.8zm-236.22 -234.37l-130.72 2.41 0.58 255.39 132.69 -2.29c-12.8,251.12 -12.93,439.25 205.82,534.2 55.07,23.91 157.7,33.57 215.1,19.82l-3.98 -238.72c-175.54,-29.7 -158.05,1.46 -160.93,-316.11l163.61 -0.22 -2.12 -247.95 -161.49 -5.23 1.77 -254.14c-49.43,-16.22 -199.12,-6.51 -258.55,-3.24l-1.78 256.08z"/>
   <path class="fil3" d="M5373 1674.39c-21.7,-82 -16.2,-147.39 -15.6,-237.02 0.08,-12.08 1.44,-32.18 1.02,-42.85 -1.32,-34.23 -0.64,-22.69 -10.83,-38.29 -0.78,2.27 -2.18,3.06 -2.36,6.8l-2.47 133.6c-0.7,89.14 -19.03,181.03 65.06,218.86 57.96,26.08 63.23,13.99 126.04,22.48l3.72 289.47c-254.74,49.04 -505.93,-117.48 -509.64,-386.58 -1.28,-92.77 -10.89,-213.48 -3.47,-302.8 -53.7,-15.24 -112.88,8.05 -165.22,-13.83l-0.62 -292.6 153.74 -6.33c21.51,-29.54 14.27,-20.89 10.2,-23.87l3.43 -297.88c46.56,-10.48 268.05,-12.13 310.1,-0.6 16,100.47 2.15,218.37 5.69,320.41l193.73 3.42c8,57.53 15.98,264.44 -7.82,302.25 -25.86,2.26 -52.38,1.97 -78.49,2.11 -124.5,0.66 -60.86,-2.04 -84.64,17.72l194.64 -3.34 -0.53 -330.98 -196.64 -5.8c-14.51,-60.63 -2.38,-254.8 -0.7,-326.94 -69.8,-2.67 -294.17,-9.86 -351.26,4.19l-5.23 324.33 -165.89 1.78c2.27,52.49 3.5,107.64 4.31,162.8 1.19,81.35 6.46,100.79 -6.67,172.15 49.29,13.02 115.71,-12.14 170.19,15 17.6,279.68 -41.13,433.44 167.93,603.62 28.06,22.84 61.91,40.59 100.21,53.82 66,22.78 208.14,42.5 285.73,30.5l-0.9 -331.74c-40.33,-6.57 -62.54,-1.09 -109.2,-11.75 -47.14,-10.77 -41.72,-14.48 -77.56,-32.11z"/>
   <path class="fil5" d="M3204.78 1026.7c106.26,-17.61 225.4,-2.35 318.1,51.33 444.34,257.27 300.66,892.84 -163.99,955.01 -307.44,41.13 -539.03,-171.55 -579.67,-425.85 -25.07,-156.88 30.29,-295.45 101.68,-392.7 15.43,-21.02 43.2,-44.94 61.81,-65.13 62.21,-67.52 171.68,-107.68 262.07,-122.66zm535.39 808.55l28.12 -11.77 10.44 -51.3c-1.52,1.23 -3.44,1.51 -4.19,4.13l-30.11 23.11c15.54,-55.15 51.74,-90.01 64.21,-205.82 14.1,-130.91 -21.34,-303.33 -114.37,-398.94 -28.55,-29.33 -55.29,-63.85 -100.26,-95.75 -57.8,-41.01 -152.74,-88.82 -232.45,-95.9 -80.81,-7.19 -158.51,1.2 -233.57,18.09 -264.17,59.44 -451.88,400.98 -349.93,667.58 53.71,140.46 105.16,221.97 236.13,294.73 58.68,32.6 112.91,62.15 191.14,70.85 147.63,16.43 297.62,-11.65 410.76,-113.89 30.22,-27.3 51.21,-37.62 69,-65.58 11.92,-18.74 14.3,-23.33 27.98,-39.88 5.23,-6.33 13.58,-18.98 14,-19.48 16.15,-19.42 -0.43,-6.65 25.49,-22.4l-12.39 42.22z"/>
   <path class="fil2" d="M5499.94 2688.79l245.63 -0.21 2.98 801.81c-68.58,-9.01 -202.17,3.31 -248.68,-9.22l0.07 -792.38zm-24.67 816.11c43.36,20.74 233.88,14.76 301.17,13.06l0.45 -851.99c-65.51,-23.03 -228.85,-7.31 -304.22,-5.54 -11.69,52.3 -10.41,799.11 2.6,844.47z"/>
   <path class="fil5" d="M942.93 1026.32c171.73,-28.19 288.4,22.41 396.41,101.57 90.06,66 168.19,201.04 187.1,320.37 48.18,303.99 -169.02,546.28 -428.22,585.01 -300.1,44.85 -540.96,-174.18 -578.27,-426.11 -45.02,-304.03 167.48,-538.9 422.98,-580.84zm339.91 990.81c41.6,7.83 23.29,6.61 34.57,-22.01 -21.55,-11.4 -25.74,17.56 -16.54,-14.71 59.73,-40.4 102.23,-64.09 140.15,-123.3 10.93,-17.07 21.33,-29.46 27.13,-39.38 13.16,-22.53 5.99,-23.2 20.79,-46.42 114.86,-180.16 65.23,-349.33 -11.37,-512.3 -107.62,-228.96 -441.62,-338.15 -716.83,-192.41 -47.72,25.27 -100.21,76.72 -142.75,120.12 -96.64,98.57 -131.98,259.82 -120.68,403.36 6.08,77.22 32.53,142.06 62.87,199.07 19.48,36.62 87.63,127.04 115.1,146.41 188.52,133 384,165.55 599.84,60.7 12.83,8.33 15.48,-20.52 7.72,20.87z"/>
   <path class="fil3" d="M2262.16 2912.38c-35.41,91.72 -32.82,125.74 -29.76,224.2l7.36 65.45c1.59,2.67 5.5,2.38 6.64,6.54 14.35,51.98 -11.23,-24.54 14.27,13.07 -10.31,-119.19 -32.93,-131.46 -0.3,-258.1 20.4,-79.14 68.29,-142.82 113.64,-181.89 10.52,-9.06 9.39,-8.07 18.8,-15.07 1.99,-1.48 8,-5.4 9.95,-6.89 31.48,-23.97 65.93,-58.86 156.52,-78.74 117.36,-25.76 162.1,2.66 256.37,24.98l1.23 -448.61 253.17 -2.32c16.76,55.34 6.24,485.8 5.8,579.36 -0.89,189.53 31.71,402.42 -114.09,535.14l-21.05 20.67c-42.75,44.85 -36.71,43.08 -104.72,73.11 -62.35,27.53 -4.86,16.64 -109.32,34.48 -122.12,20.86 -251.52,-16.46 -342.35,-96.24 -47.98,-42.15 -102.22,-125.23 -115.88,-185.53 -18.13,16.49 -6.44,-3.55 -13.22,24.23 28.54,122 194.66,257.2 329.53,276.82 177.67,25.86 342.24,-53.71 421.97,-162.85 105.53,-144.45 87.61,-314.33 87.51,-519.83 -0.09,-198.03 3.57,-398.42 0.8,-596.48l-294.97 1.41 -3.21 444.15c-122.6,-34.39 -228.56,-48.54 -342.84,16.6 -61.58,35.11 -176.83,136.83 -191.85,212.34z"/>
   <path class="fil4" d="M6649.57 3467.28l-208.58 -0.27 -11.11 -55.36c-46.33,7.71 -40.93,34.55 -126.58,54.53 -348.84,81.38 -628.37,-406.4 -298.98,-686.12 134.54,-114.25 380.63,-127.09 538.03,44.79 157.87,172.38 98.74,374.81 107.22,642.43zm28.76 -401.28c10.51,-25.17 9.14,-27.13 0.92,-56.55l-20.46 2.67c-18.88,-174.36 -163.96,-296.55 -324.78,-334.03 -121.99,-28.43 -240.96,10.99 -330.18,76.18 -80.53,58.83 -34.53,27.13 -78.82,81.47 -16.85,20.66 -20.27,14.69 -34.13,40.59 -93.89,175.49 -66.59,364.69 55.24,493.93 131.02,139 280.32,159.83 447.51,84.48l17.56 -6.4 0.45 40.05 256.79 -0.66c8.49,-102.95 -13.52,-344.38 9.9,-421.73z"/>
   <path class="fil5" d="M3980.44 1222.93c-5.87,49.65 -5.72,15.75 13.61,28.12 126.26,-323.55 798.75,-362.57 807.01,254.05 1.08,80.53 10.72,454.97 -6.35,504.02l-264.17 0.59c-22.19,-132.64 10.21,-461.84 -8.78,-601.79 -12.14,-89.44 -48.16,-72.77 -80.15,-116.95 -83.83,-21.45 -136.92,-13.9 -191.96,42.3 9.3,22.14 -24.08,23.3 25.34,14.82 13.56,-15.45 23.96,-46.11 90.41,-49.54 52.64,-2.72 70.4,19.67 107.51,41.79l0.35 21.56 15.75 1.68c11.06,93.54 9.38,6.52 14.81,149.92 6.25,164.84 -4.3,342.4 3.38,515.04 48.51,4.46 104.94,2.93 154.59,2.96 41.74,0.02 125.2,5.02 155.43,-7.71 16.65,-48.14 2.04,-427.44 5.12,-518.69 15.32,-453.57 -425.19,-626.93 -716.18,-419.93 -39.34,27.99 -100.68,91.05 -125.72,137.76z"/>
   <path class="fil3" d="M1282.84 2017.13c7.76,-41.39 5.11,-12.54 -7.72,-20.87 -215.84,104.85 -411.32,72.3 -599.84,-60.7 -27.47,-19.37 -95.62,-109.79 -115.1,-146.41 -30.34,-57.01 -56.79,-121.85 -62.87,-199.07 -11.3,-143.54 24.04,-304.79 120.68,-403.36 42.54,-43.4 95.03,-94.85 142.75,-120.12 275.21,-145.74 609.21,-36.55 716.83,192.41 76.6,162.97 126.23,332.14 11.37,512.3 -14.8,23.22 -7.63,23.89 -20.79,46.42 -5.8,9.92 -16.2,22.31 -27.13,39.38 -37.92,59.21 -80.42,82.9 -140.15,123.3 -9.2,32.27 -5.01,3.31 16.54,14.71 90.59,-78.25 182.11,-132.76 229.96,-296.73 65.19,-223.41 -1.95,-378.35 -107.51,-528.45 -38.23,-54.34 -165.4,-136.7 -243.91,-162.41 -181.99,-59.6 -380.25,-20.66 -518.15,94.65 -91.22,76.3 -117.86,124.91 -171.3,237.28 -40.78,85.78 -38.18,253.35 -6.3,357.7 18.32,59.99 49.38,129.97 94.22,175.21 84.25,85.01 105.73,119.74 237.05,171.69 64.91,25.68 160.63,36.58 240.83,30.9 112,-7.92 115.46,-27.4 188.56,-51.7 13.41,-4.45 10.79,-4.22 21.98,-6.13z"/>
   <path class="fil4" d="M4119.92 3413.81c-104.12,41.52 -149.16,92.4 -294.93,45.36 -194.54,-62.77 -305.37,-272.08 -256.34,-474.01 68.77,-283.27 473.81,-406.93 681.97,-154.72 131.69,159.58 100.8,393.15 94.37,637.61l-209.3 -6.64c-6.13,-32.64 0.45,-24.55 -15.77,-47.6zm245.66 72.87c11.15,-26.99 19.73,-431.11 -24.76,-544.18 -17.65,-44.87 -39.76,-92.5 -67,-126.96 -36.56,-46.25 -155.97,-127.38 -250.36,-139.7 -361.78,-47.21 -597.84,302.49 -431.79,619.15 44.49,84.84 31.66,34.28 88.91,105.69 47.41,59.14 187.09,106.96 282.61,96.1 63.06,-7.17 84.92,-22.49 141.24,-44.27l13.52 35.13c54.55,2.56 208.22,10.14 247.63,-0.96z"/>
   <path class="fil3" d="M3740.17 1835.25l12.39 -42.22c-25.92,15.75 -9.34,2.98 -25.49,22.4 -0.42,0.5 -8.77,13.15 -14,19.48 -13.68,16.55 -16.06,21.14 -27.98,39.88 -17.79,27.96 -38.78,38.28 -69,65.58 -113.14,102.24 -263.13,130.32 -410.76,113.89 -78.23,-8.7 -132.46,-38.25 -191.14,-70.85 -130.97,-72.76 -182.42,-154.27 -236.13,-294.73 -101.95,-266.6 85.76,-608.14 349.93,-667.58 75.06,-16.89 152.76,-25.28 233.57,-18.09 79.71,7.08 174.65,54.89 232.45,95.9 44.97,31.9 71.71,66.42 100.26,95.75 93.03,95.61 128.47,268.03 114.37,398.94 -12.47,115.81 -48.67,150.67 -64.21,205.82l30.11 -23.11c0.75,-2.62 2.67,-2.9 4.19,-4.13 6.61,-65.89 134.16,-235.84 -29.78,-531.93 -28.69,-51.81 -145.59,-167.61 -207.48,-198.35 -211.13,-104.85 -429.43,-72.15 -612.63,68.04 -25.48,19.49 -45.68,40.03 -67.87,68.21 -9.84,12.49 -50.27,63.22 -57.43,76.52 -102.48,190.35 -95.05,428.59 49.23,611.32 93.06,117.86 186.21,174.21 334.61,202.59 83.4,15.95 243.68,0.99 292.54,-26.78 16.82,-9.55 30.05,-15.79 45.23,-21.85 124.1,-49.53 181.38,-155.55 215.02,-184.7z"/>
   <path class="fil3" d="M6678.33 3066c-23.42,77.35 -1.41,318.78 -9.9,421.73l-256.79 0.66 -0.45 -40.05 -17.56 6.4c-167.19,75.35 -316.49,54.52 -447.51,-84.48 -121.83,-129.24 -149.13,-318.44 -55.24,-493.93 13.86,-25.9 17.28,-19.93 34.13,-40.59 44.29,-54.34 -1.71,-22.64 78.82,-81.47 89.22,-65.19 208.19,-104.61 330.18,-76.18 160.82,37.48 305.9,159.67 324.78,334.03l20.46 -2.67c-23.74,-120.69 -57.05,-152.69 -113.48,-224.77 -115.22,-147.18 -478.3,-220.84 -679.16,64.12 -183.43,260.24 14.42,688.24 367.39,668.15 63.76,-3.63 84.2,-26.2 134.99,-35.3 4.96,16.87 7.95,15.83 16.93,25.67l283.7 0.94 -1.33 -386.08c-0.12,-4.64 -0.05,-22.63 -0.47,-25.94l-5.99 -23.34c-0.63,-1.96 -2.36,-4.58 -3.5,-6.9z"/>
   <path class="fil3" d="M3220.26 3465.18c-23.13,-48.3 -8.33,-304.32 -8.4,-376.82 -0.11,-124.1 5.36,-259.97 -2.18,-385.34l133.03 3.37 45.08 -0.51 40.37 3.32c-30.68,-14.87 -78.88,-6.56 -112.57,-7.06 -49.05,-0.72 -91.65,4.28 -118.27,-11.71 10.72,-7.03 2.2,-8.31 24.24,-12.4 6.12,-1.14 27.51,0.01 34.82,0.31l196.44 -0.99 -1.28 813.17 -264.2 1.7c14.47,-98.42 3.27,-287.76 3.42,-395.39 0.09,-64.91 -0.1,-129.82 -0.12,-194.73 -0.02,-38.57 -6.63,-160.9 6.42,-193.36l10.28 718.98c0.66,35.72 -2.2,26.28 12.92,37.46zm-47.25 37.57c74.51,12 223.34,10.06 297.2,4.46l1.04 -843.07c-80.39,-6.26 -221.33,-11.68 -298.83,3.49l0.59 835.12z"/>
   <path class="fil4" d="M5103.72 2816.69c9.81,-21.79 15.88,-18.5 31.5,-33.98 19.47,-19.32 9.24,-13.85 37.54,-29.68 31.29,-17.52 50.77,-33.22 92.18,-32.82 25.4,-24.43 99.7,-16.94 137.79,-10.59l-2.57 193.7c-62.33,12.43 -104.94,-1.29 -133.52,45.13 -27.98,45.42 -14.99,448.13 -16.01,520.25l-212.63 -3.49c-12.61,-56.09 -3.3,-285.88 -2.96,-359.91 0.31,-67.11 -12.26,-239.45 68.68,-288.61zm168.07 678.67c2,-120.88 0.56,-243.34 0.42,-364.66 -0.16,-145.82 -26.57,-218.05 151.95,-204.46l0.2 -246.69c-108.79,6.96 -164.25,-3.16 -258.75,49.52 -20.7,11.55 -24.74,18.8 -44.22,31.12 -24.73,15.63 -77.72,100.4 -91.4,137.25 -31.26,84.2 -15.94,466.34 -19.67,587.35 74.34,25.8 188.37,-7 261.47,10.57z"/>
   <path class="fil1" d="M5571.57 2386.92c-148.48,52.63 -66.56,276.4 92.16,219.4 127.58,-45.82 70.47,-277.05 -92.16,-219.4z"/>
   <path class="fil1" d="M3296.66 2382.6c-68,14.93 -111.7,53.14 -103.79,128.69 5.64,53.82 55.82,111.46 139.74,102.48 61.86,-6.62 104.05,-65.81 98.72,-135.38 -3.96,-51.72 -51.58,-114.03 -134.67,-95.79z"/>
   <path class="fil4" d="M3428.16 2709.2l-3.94 758.25 -203.96 -2.27c-15.12,-11.18 -12.26,-1.74 -12.92,-37.46l-10.28 -718.98c-13.05,32.46 -6.44,154.79 -6.42,193.36 0.02,64.91 0.21,129.82 0.12,194.73 -0.15,107.63 11.05,296.97 -3.42,395.39l264.2 -1.7 1.28 -813.17 -196.44 0.99c-7.31,-0.3 -28.7,-1.45 -34.82,-0.31 -22.04,4.09 -13.52,5.37 -24.24,12.4 26.62,15.99 69.22,10.99 118.27,11.71 33.69,0.5 81.89,-7.81 112.57,7.06z"/>
   <path class="fil3" d="M5271.79 3495.36c-73.1,-17.57 -187.13,15.23 -261.47,-10.57 3.73,-121.01 -11.59,-503.15 19.67,-587.35 13.68,-36.85 66.67,-121.62 91.4,-137.25 19.48,-12.32 23.52,-19.57 44.22,-31.12 94.5,-52.68 149.96,-42.56 258.75,-49.52l-0.2 246.69c-178.52,-13.59 -152.11,58.64 -151.95,204.46 0.14,121.32 1.58,243.78 -0.42,364.66zm-261.69 -587.17c-35.99,148.59 -3.46,451.33 -13.01,596.68l271.17 0.24 21.45 3.33c-5.7,-89.55 -1.7,-193.26 -1.7,-284.61l1.26 -212.09c7.47,-92.73 45.16,-53.62 150.26,-75.78l-1.21 -268.38c-66.77,-20.87 -225.15,8.86 -285.03,48.31 -48.38,31.87 -32.32,10.97 -89.59,80.61 -19.39,23.58 -46.21,73.43 -53.6,111.69z"/>
   <path class="fil6" d="M4274.99 1348.09c-49.42,8.48 -16.04,7.32 -25.34,-14.82 -78.09,122.46 -5.26,530.38 -39.44,676.29l-266.04 0.44c-10.25,-41.66 -5.38,-430.44 -3.98,-530.31 0.63,-44.92 -2.76,-46.35 12.29,-70.86 -11.16,-37.76 17.86,-140.01 41.57,-157.78 -19.33,-12.37 -19.48,21.53 -13.61,-28.12 -13.66,29.93 -22.78,29.96 -34.49,74.36 -46.1,174.81 -26.76,543.22 -26.74,730.08 55.29,11.12 258.03,10.88 314.56,-0.21 4.39,-119.91 2.17,-240.81 1.69,-361.2 -0.34,-82.65 -20.12,-278.06 39.53,-317.87z"/>
   <path class="fil7" d="M5548.36 2715.22c62.04,-4.19 106.25,2.43 129.43,-4.35 2,1.63 5.05,1.49 6.03,4.84l31.17 25.52 -2.84 696.72c-18.29,10.22 -58.25,17.06 -85.28,15.88 -39.69,-1.73 -58.46,5.88 -92.31,-2.81l-3.14 -717.87 39.1 -9.62c-31.75,11.26 -19.92,-6.41 -22.16,-8.31zm-38.37 749.39l218.24 4.48c8.84,-61.57 7.49,-731.08 -3.83,-764l-213.66 -3.4 -0.75 762.92z"/>
   <path class="fil7" d="M5103.72 2816.69c-80.94,49.16 -68.37,221.5 -68.68,288.61 -0.34,74.03 -9.65,303.82 2.96,359.91l212.63 3.49c1.02,-72.12 -11.97,-474.83 16.01,-520.25 28.58,-46.42 71.19,-32.7 133.52,-45.13l2.57 -193.7c-38.09,-6.35 -112.39,-13.84 -137.79,10.59 49.67,9.27 74.21,-17.39 118.48,16.61l-0.03 143.44c-34.41,11.33 -62.84,10.33 -86.11,18.57 -123.52,43.76 -41.12,376.16 -67.37,556.28 -71.66,-2.86 -108.33,1.83 -178.82,-11.73 15.88,-45.36 -15.89,-400.49 12.87,-519.47 13.21,-23.94 17.81,-19.73 29.51,-35.74 21.07,-28.83 -13.32,-6.01 33.03,-28.23l-20.49 -12.56c-0.74,-2.63 -2.91,-3.04 -4.95,-4.61l2.66 -26.08z"/>
   <path class="fil8" d="M910.71 1245.58c69.7,16.43 121.78,-33.79 191.17,18.37 29.91,22.49 48.99,18 70.62,37.57l55.68 62.1c0.49,4.1 2.62,5.39 3.26,7.33 26.71,81 33.69,40.1 45.03,92.37 8.69,40.09 13.55,143.66 -26.1,162.5 -9.24,4.39 -4.69,1.28 -14.78,6.28 -1.1,21.72 -0.65,34.61 -9.67,51.06 -11.58,21.12 -1.77,3.49 -16.7,18.82l-20.99 28.21c-1.22,1.02 -5.75,2.91 -7.37,3.48l-59.55 6.93c-23.38,75.18 -128.99,59.32 -192.84,42.21 -55.18,-14.79 -144.3,-87.03 -171.27,-148.11l-16.9 -48.13c-30.15,-82.24 15.56,-138.28 5.04,-193.31l-20.62 34.8c-17.15,48.4 -17.9,117.12 -4.02,166.33 34.21,121.27 135.51,207.94 257.79,218.69 99.49,8.75 129.92,-23.09 198.67,-46.89 24.53,-40.55 82.46,-58.62 108.79,-149.45 44.6,-153.79 -9.78,-292.73 -148.89,-362.74 -32.08,-16.14 -65.87,-28.28 -107.17,-30.82 -41.29,-2.54 -89.22,-2.25 -119.18,22.4z"/>
   <path class="fil8" d="M6317.39 1309c8.84,50.49 13.28,27.53 31.14,54.93 68.76,105.52 80.51,225.79 -1.85,327.28 -21.21,26.13 -14.53,10.15 -33.85,48.35 -48.27,12.53 -103.2,95.35 -252.57,55.91 -48.39,-12.77 -148.31,-84.74 -175.35,-141.52 -76.55,-160.77 3.86,-318.39 115.24,-365.99 11.87,-5.07 22.75,-10.99 29.15,-13.8 14.33,-6.29 -9.69,-3.1 28.57,-6.9l-0.05 -23.67c-123.44,24.27 -225.67,143.7 -225.47,286.89 0.19,139.08 103.38,255.59 214.5,283.74 157.67,39.94 285.28,-38.89 341.49,-140.61 77.86,-140.89 19.11,-326.95 -70.95,-364.61z"/>
   <path class="fil8" d="M6303.04 3316.38c-280.27,30.54 -330.52,-239.54 -269.37,-316.24 5.25,-63.98 94.35,-126.66 164.71,-144.82 163.75,-42.27 341.37,131.73 266.79,317.67 -34.31,85.53 -78.85,105.47 -162.13,143.39zm183.75 -345.02c-17.27,-16.31 -38.22,-39.17 -54.31,-63.25 -29.02,-43.45 -27.41,-24.67 -73.27,-53.97 -33.86,-21.64 -31.46,-20.91 -105.44,-23.9 -73.38,-2.97 -131,19.8 -180.9,68.96l-60.44 70.5c-50.27,114.24 -8.46,299.85 120.15,349.91 64.49,25.1 163.09,20.93 220.84,-0.57 21.21,-7.9 26.67,-11.67 39.84,-23.3l35.05 -25.32c24.06,-17.77 34.45,-46.94 50,-74.71 30.18,-53.88 15.68,-160.71 8.48,-224.35z"/>
   <path class="fil8" d="M2887.18 3147.63c-26.73,108.18 -141.81,208.55 -285.65,171.36 -107.07,-27.67 -205.2,-138.49 -169.43,-285.21 72.32,-296.65 530.14,-189.83 455.08,113.85zm-121.92 192.39c0.14,-0.42 -0.19,-1.21 -0.22,-1.3 -12.62,-40.19 20.36,-15 63.27,-50.83 43.24,-36.11 84.42,-114.97 86.05,-191.12 1.85,-86.96 -29.38,-125.13 -56.58,-169.44 -27.75,-45.21 -9.66,-27.73 -56.51,-53.94 -231.21,-129.32 -451.76,88.04 -386.21,294.24 44.66,140.48 60.64,53.08 62.33,117.41l84.99 40.82c33.14,20.37 149.97,12.96 202.88,14.16z"/>
   <path class="fil8" d="M1042.92 3288.95c-70.39,85.68 -374.76,22.77 -346.61,-226.35 3.44,-30.4 13.19,-57.9 24.31,-80.21 22.67,-45.52 25.79,-45.19 49.68,-57.03 0.48,-1.56 1.36,-3.83 1.8,-4.56 0.44,-0.75 1.76,-3.49 2.33,-4.4 0.61,-0.97 2.45,-3.16 3.14,-4.21l12.62 -20.85c27.55,-2.73 55.84,-22.8 95.37,-31.19 37.54,-7.98 60.92,-9.35 100.38,0.5 279.64,69.79 169.68,429.87 56.98,428.3zm-252.73 -397.61l-14.23 -6.11c-23.23,27.37 -50.83,13.36 -82.86,107.52 -5.8,17.03 -10.47,34.95 -13.82,51.25 -17.65,85.84 13.32,193.3 80.83,237.63 41.71,27.38 42.17,31.97 108.95,54.4 37.38,12.56 79.54,6.94 117.25,-1.98 127.32,-30.1 87.39,-28.45 121.79,-65.28 44.79,-47.95 17.56,7.53 48.89,-72.5 8.83,-22.53 15.68,-13.28 23.04,-48.07 34.42,-162.61 -86.64,-311.14 -243.89,-312.01l-57.12 -5.66c-46.22,1.62 -47.67,22.58 -85.96,39.51l-2.87 21.3z"/>
   <path class="fil7" d="M4562.62 3226.07c4.03,-25.13 -0.37,-295.18 -5.37,-326.39 -51.78,-15.97 -66.42,-9.31 -124.1,-8.74l-3.04 -171.59c65.2,-7.04 77.07,15 130.52,-20.45 2.21,-66.72 -9.89,-194.99 6.89,-251.57 65.87,2.19 130.26,-6.08 179.21,21.27 -3.19,289.15 -29.34,247.19 160.64,247.19l0 169.37c-29.89,6.22 4.63,10.08 -84.68,8.3 -65.21,-1.31 -48.77,1.75 -63.61,17.72l162.21 -0.8 1.38 -206c-26.52,-0.36 -51.18,-0.52 -74.59,-0.35 -41.11,0.29 -50.59,7.18 -79.75,-10.58l-7.5 -252.68 -213.17 0.78 -3.27 257.39 -129.16 5.52c2.54,250.12 -40.34,194.82 127.07,208.29 14,117 -17.13,263.66 20.32,313.32z"/>
   <path class="fil9" d="M3952.48 1408.83c-15.05,24.51 -11.66,25.94 -12.29,70.86 -1.4,99.87 -6.27,488.65 3.98,530.31l266.04 -0.44c34.18,-145.91 -38.65,-553.83 39.44,-676.29 55.04,-56.2 108.13,-63.75 191.96,-42.3 -29.71,-66.42 -204.31,-25.26 -236.14,79.68 -13.91,45.89 -9.15,526.72 -14.28,620.5l-225.96 1.56c-4.32,-58.94 -15.53,-65.82 -15.42,-132.04l2.67 -451.84z"/>
   <path class="fil8" d="M4033.76 2865.15l0 7.11c65.77,33.86 110.03,59.24 134.15,133.36 19.68,23.06 26.61,98.26 12.54,152.94 -33.29,129.39 -195.02,219.94 -335.24,145.53 -155.09,-82.31 -184.74,-318.37 9.39,-421.53 28.19,-14.98 10.99,-1.43 25.09,-19.1 -53.54,-11.66 -144.09,87.53 -153.83,101.55 -27.43,39.49 -33.75,170.99 -14.86,227.18 12.39,36.88 65.17,111.96 121.52,132.39 119.35,43.29 117.84,9.79 219.67,14.38 53.28,-60.24 34.21,-13.73 68.58,-46.37 30.59,-29.05 -11.84,-6.96 48.63,-53.55 19.81,-15.26 40.15,-107.47 41.58,-116.46 5.87,-36.71 -14.89,-103.32 -22.25,-129.17 -12.55,-44.06 -83.59,-141.61 -154.97,-128.26z"/>
   <path class="fil7" d="M3220.26 3465.18l203.96 2.27 3.94 -758.25 -40.37 -3.32c14.49,30.36 -1.44,12.79 26.76,35.35 1.21,121.27 -0.8,242.77 -0.34,364.07 0.13,33.44 14.55,316.04 -10.8,335.59 -19.8,12.9 -124.98,11.32 -153.99,5.9 -3.99,-11.73 -6.18,-21.17 -9.07,-29.98 -4.96,-15.15 -5.16,1.18 -7.5,-31.61 -10.55,-147.58 9.91,-459.15 -2.2,-643.97l24.42 -15.53 -21.63 -6.74c22.61,-4.65 33.82,-6.7 56.86,-6.31 48.25,0.83 26.56,11.54 52.41,-6.26l-133.03 -3.37c7.54,125.37 2.07,261.24 2.18,385.34 0.07,72.5 -14.73,328.52 8.4,376.82z"/>
   <path class="fil5" d="M5289.71 3508.44c15.04,-7.89 18.35,-0.3 17.26,-55.85l-2.46 -440.43c41.73,-39.44 0.94,-26.21 60.01,-38.91l29.2 24.33c-2.1,-1.89 -2.32,24.06 -5.2,-6.11 -0.09,-0.88 -0.46,-3.91 -0.41,-4.88 1.16,-20.55 2.75,-9.35 10.28,-20.57 75.37,-2.88 57.54,34.17 56.1,96.96l-1 445.57c10.94,-9.88 1.63,-4.29 21.78,-3.65 -13.01,-45.36 -14.29,-792.17 -2.6,-844.47 -24.8,-2.27 -47.17,-15.96 -34.35,7.15l1.21 268.38c-105.1,22.16 -142.79,-16.95 -150.26,75.78l-1.26 212.09c0,91.35 -4,195.06 1.7,284.61z"/>
   <path class="fil6" d="M5510.74 2701.69l213.66 3.4c11.32,32.92 12.67,702.43 3.83,764l-218.24 -4.48 0.75 -762.92zm-10.87 779.48c46.51,12.53 180.1,0.21 248.68,9.22l-2.98 -801.81 -245.63 0.21 -0.07 792.38z"/>
   <path class="fil10" d="M1177.16 1766.19c-68.75,23.8 -99.18,55.64 -198.67,46.89 -122.28,-10.75 -223.58,-97.42 -257.79,-218.69 -13.88,-49.21 -13.13,-117.93 4.02,-166.33l20.62 -34.8 100.5 -127.3 -34.57 -4.59c-23.11,24.18 -18.96,31.82 -40.11,54.43 -16.38,17.49 -32.42,22.34 -49.97,36.9l-0.55 57.5c-8.78,-6.36 -31.91,1.79 -15.8,-15.17 -16.92,166.58 -22.59,134.13 9.58,250.66 16.48,59.71 4.78,33.62 42.96,69.5 40.66,38.23 34.3,61.85 97.8,75.23 -10.32,15.6 11.53,19.94 30.48,38.55 25.51,-9.82 -11.98,-8.49 32.73,-8.71 53.46,-0.25 4.97,21.87 128.26,5.5 33.74,-4.49 70.56,-5.55 106.84,-25.05 24.52,-13.18 19.46,-5.18 23.67,-34.52z"/>
   <path class="fil6" d="M4961.06 3227.63c-2.47,62.27 -8.55,233.01 5.39,285.24l-188.51 -14.25c11.6,15.36 0.65,12.64 21.66,21.79 19.26,8.39 195.76,0.51 226.26,2.36 37.7,2.29 203.61,7.06 242.4,-17.66l-271.17 -0.24c9.55,-145.35 -22.98,-448.09 13.01,-596.68l-10.22 10.61c-1.13,1.25 -3.29,3.64 -4.37,4.85 -27.5,30.76 -12.99,313.38 -12.05,384.85 0.44,32.91 7.88,83.97 -8.4,112.21 -2.53,-6.53 -2.11,8.85 -5.31,-19.05 -0.46,-4.01 -0.3,-20.09 -0.33,-25.03 -0.24,-42.17 1.35,-114.73 -8.36,-149z"/>
   <path class="fil4" d="M3296.66 2382.6c83.09,-18.24 130.71,44.07 134.67,95.79 5.33,69.57 -36.86,128.76 -98.72,135.38 -83.92,8.98 -134.1,-48.66 -139.74,-102.48 -7.91,-75.55 35.79,-113.76 103.79,-128.69zm-19.83 -24.35c-239.88,89.62 -25.69,389.33 125.32,250.3 139.49,-128.42 -14.27,-291.79 -125.32,-250.3z"/>
   <path class="fil4" d="M5571.57 2386.92c162.63,-57.65 219.74,173.58 92.16,219.4 -158.72,57 -240.64,-166.77 -92.16,-219.4zm8.62 -27.82c-119.87,39.35 -155.87,196.09 -35.89,262.05 115.81,63.67 243.57,-45.48 206.69,-164.83 -17.69,-57.25 -84.77,-125.47 -170.8,-97.22z"/>
   <path class="fil3" d="M5580.19 2359.1c86.03,-28.25 153.11,39.97 170.8,97.22 36.88,119.35 -90.88,228.5 -206.69,164.83 -119.98,-65.96 -83.98,-222.7 35.89,-262.05zm-23.24 -11.59c-45.47,18.41 -66.88,35.31 -83.98,70.8 -99.83,207.18 189.62,336.15 279.78,160.29 89.26,-174.11 -85.51,-275.75 -195.8,-231.09z"/>
   <path class="fil3" d="M3276.83 2358.25c111.05,-41.49 264.81,121.88 125.32,250.3 -151.01,139.03 -365.2,-160.68 -125.32,-250.3zm-22.62 -10.21c-201.41,87.42 -74.7,378.93 118.85,300.45 78.13,-31.67 118.24,-118.93 93.91,-201.7 -24.61,-83.73 -123.52,-137.48 -212.76,-98.75z"/>
   <path class="fil3" d="M6597.78 1799.8c-10.37,5.91 -2.29,-1.54 -12.3,10.01l-14.88 19.74c-18.58,27.35 -24.12,47.45 -51.19,69.88l-33.81 32.87c-140.34,130.94 -370.85,167.74 -545.65,99.84 -61.52,-23.9 -133.36,-61.28 -181.2,-108.17 -9.5,-9.31 -9,-11.88 -14.99,-19.56 -16.9,-21.68 -13.91,-11.03 -30.45,-29.08l-27.41 -38.98c-54.53,-65.05 -96.51,-198.59 -95.07,-288.69 0.59,-37.2 0.12,-83.46 5.93,-119.47 2.4,-14.89 6.22,-30.31 11.01,-47.29l16.79 -58.77 -8.27 11.54c-47.53,78.69 -39.02,240.13 -24.91,323.28 18.11,106.74 118.9,214.04 125.27,257.34 67.71,17.39 44.47,59.7 202.05,121.61 82.73,32.5 191.36,54.59 291.1,35.95 92.3,-17.25 159.66,-41.63 236.17,-94.99 41.75,-29.11 138.26,-123.8 151.81,-177.06z"/>
   <path class="fil4" d="M1923.56 2956.67c-34.37,20 -2,-3.64 -14.52,19.05l1.08 6.36c-40.29,11.63 -193.56,11.13 -237.07,2.94 11.34,-60.85 129.98,-75.11 174.41,-53.41 3.03,1.48 25.88,16.57 27.14,17.02 55.98,20.21 19.08,11.92 30.98,-8.53 -71.87,-75.87 -242.55,-49.45 -275.71,64.98 53.92,13.13 251.78,12.99 311.35,3.72 0.69,-32.49 -3.65,-26.43 -17.66,-52.13z"/>
   <path class="fil10" d="M1042.92 3288.95l-37.86 -3.16c-40.6,41.54 -122.81,24.87 -169.49,3.41 -24.14,-11.1 -26.78,-21.65 -33.67,-50.22 -60.32,-15.61 -83.77,-77 -86.01,-133.44 -4.62,-116.16 51.69,-127.05 54.41,-180.18 -23.89,11.84 -27.01,11.51 -49.68,57.03 -11.12,22.31 -20.87,49.81 -24.31,80.21 -28.15,249.12 276.22,312.03 346.61,226.35z"/>
   <path class="fil11" d="M5040.33 1046.61c19.08,-8.54 9.41,-0.17 12.97,-23.62 0.12,-0.73 0.3,-39.11 0.27,-42.79l-1.19 -252.75 260.75 -1.76 -2.39 246.02c-0.14,63.9 -3.58,58.67 14.84,74.48l-4.57 -325.2 -275.35 -2.6 -5.33 328.22z"/>
   <path class="fil7" d="M4698.69 3420.51l43.29 26.96c14.2,6.15 32.36,11.26 51.41,14.24 44.26,6.93 81.79,8.01 129.35,4.33l-0.94 -193.62 -111.99 -25.63 8.02 21.97c36.94,3.71 45.29,12.17 89.54,14.29l0 160.96c-96.5,33.22 -133.29,-24.82 -208.68,-23.5z"/>
   <path class="fil3" d="M1774.27 2936.21c15.76,-1.24 34.06,-1.1 49.5,2.07 49.35,10.13 24.74,9.92 34.65,23.08 -38.45,25.26 -111.18,15.52 -155.15,11.85 16.87,-24.31 27.27,-33.54 71,-37zm149.29 20.46l-17.98 -16.57c-11.9,20.45 25,28.74 -30.98,8.53 -1.26,-0.45 -24.11,-15.54 -27.14,-17.02 -44.43,-21.7 -163.07,-7.44 -174.41,53.41 43.51,8.19 196.78,8.69 237.07,-2.94l-1.08 -6.36c12.52,-22.69 -19.85,0.95 14.52,-19.05z"/>
   <path class="fil12" d="M6303.04 3316.38c-10.72,-9.73 -3.25,-6.55 -23.36,-10.19l-51.97 1.06c-83.82,1.07 -179.09,-108.16 -193.28,-160.1 -16.92,-61.89 -0.17,-91.3 -0.76,-147.01 -61.15,76.7 -10.9,346.78 269.37,316.24z"/>
   <path class="fil6" d="M1703.27 2973.21c43.97,3.67 116.7,13.41 155.15,-11.85 -9.91,-13.16 14.7,-12.95 -34.65,-23.08 -15.44,-3.17 -33.74,-3.31 -49.5,-2.07 -43.73,3.46 -54.13,12.69 -71,37z"/>
   <path class="fil10" d="M4167.91 3005.62c-24.12,-74.12 -68.38,-99.5 -134.15,-133.36 -46.6,-8.75 -7.85,-7.22 -23.86,21.33l88.27 37.82c19.23,18.89 35.13,68.99 47.2,62.69 0,38.96 -4.65,1.21 22.54,11.52z"/>
   <path class="fil6" d="M1854.63 3215.36l-137.52 -6.28c24.61,31.27 104.5,45.1 137.52,6.28z"/>
  </g>
 </g>
 <g id="Capa_x0020_2">
  <metadata id="CorelCorpID_1Corel-Layer"/>
  <path class="fil13" d="M4882.73 2233.23c10.26,-7.47 25.72,-15.56 41.61,-25.27 27.03,-16.51 15.93,-9.85 37.35,-30.6 56.83,-55.06 35.14,-54.06 64.17,-78.17 126.62,76.93 129.6,108.5 332.59,138.87 -18.1,42.09 -39.89,44.98 -67.6,107.78 -7.78,17.64 -17.19,39.42 -23.24,62.05l-17.49 66.14c-46.29,16.77 -121.05,38.95 -165,52.93l-83.69 -49.73c-20.15,-182.36 -25.33,-151.94 -118.7,-244zm-1330.89 -11.48c92.22,-32.96 136.59,-77.5 183.84,-95.01 112.69,143.25 180.53,117.67 384.24,118.2 220.65,0.57 132.76,-11.24 254,-55.43 27.81,19.45 28.28,20.41 62.91,31.65 -17.32,23.83 -36.9,27.96 -55.31,45.27 -11.62,10.93 -28.42,39.5 -37.87,54.61 -28.56,45.67 -34.57,101.46 -32.57,164.03 -16.24,14.47 -37.54,29 -54.28,43.11 -35.86,-6.11 -80.59,-32.65 -124.33,-45.31 -208.41,-60.33 -298.05,-12.13 -462.56,33.92 3.04,-206.75 -99.66,-248.19 -118.07,-295.04zm285.38 -1181.54l-48.51 -56.41 -52.07 -58.69c-11.19,1.76 -14.9,1.17 -25.22,1.17 -19.41,5.44 -39.39,2.8 -55.49,-5.72l-44.66 1.42 100.8 74.17c23.3,18.26 60.69,53.85 79.13,75.83 11.48,13.7 42.68,50.65 57.79,62.6l106.42 -124.19c24.96,-25.19 13.26,-20.11 44,-40.91 68.24,-46.19 122.24,-81.72 214.95,-106.51 204.8,-54.75 364.56,-0.21 506.7,88.52 46.84,-27.43 48.05,-70.83 145.44,-78.25 5.49,-116.84 -22.95,-190.66 50.4,-273.13 65.69,-73.86 148.47,-57.85 261.36,-58.02 110.18,-0.16 199.52,-13.17 265.87,53.51 68.86,69.21 50.69,158.91 51.46,270.43 60.38,14.16 69.28,0.02 123.82,37.06 48.87,33.18 43.64,63.17 75.31,90.19 630.49,-474.31 1420.17,249.88 1006.63,908.68 -195.87,312.02 -611.57,400.94 -931.18,213.24 -31.1,-18.27 -49.95,-38.51 -75.45,-51.04 -46.97,50.75 -45.09,101.93 -141.54,119.74 -63.3,11.69 -183.75,2.03 -246.01,-11.63 -112.13,-24.61 -227.49,-81.53 -295.17,-170.81 -14.03,-18.5 -8.11,-23.05 -32.62,-27.39 -3.53,85.27 -8.51,118.02 -58.28,163.22 -57.57,52.3 -89.07,48.66 -183.11,48.38 -150.44,-0.44 -301.01,28.89 -362.98,-87.58 -116.47,60.12 47.14,88.58 -339.75,87.64 -138.77,-0.33 -217.73,-4.92 -266.5,-133.66l-12.9 -24.02c-184.03,163.25 -264.21,136.95 -346.93,179.78 30.52,24.91 71.87,38.52 99.75,60.88 162.34,130.21 81.96,298.21 81.97,360.36 35.26,0.69 31.26,-14.24 62.23,-33.12 20.27,-12.35 48.37,-25.29 73.48,-36.46 53.51,-23.79 109.59,-37.65 173.39,-41.39 146.25,-8.57 254.04,22.08 355.64,84.59l112.75 -81.59c5.54,-235.33 51.71,-257.34 285.18,-257.35 208.91,0 289.29,6.5 287.15,260.82 84.8,18.66 78.53,33.7 136.19,75.74 67.75,-42.62 139.62,-62.3 235.85,-72.78 26.05,-144.34 4.18,-156.35 96.91,-249.4 129.43,-129.89 375.38,-93.87 466.67,70.07 70.88,127.31 27.2,166.39 12.84,283.42 38.57,-9.09 86.44,-49.38 134.04,-70.19 49.76,-21.75 104.17,-37.64 162.57,-42.37 229.5,-18.59 433.46,72.76 553.39,261.88 54.58,86.07 85.81,196.16 87.82,315.69 1.63,97.06 11.59,317.75 -1.82,402.86 -32.78,208.03 -311.47,142.44 -453.27,139.48 -115.78,-2.41 -231.34,58.78 -413.27,-60.02 -25.82,-16.86 -35.58,-26.56 -60.47,-38.67 -75.3,82.12 -55.47,107.03 -228.6,107.05 -51.04,0.01 -119.74,3.81 -168.66,-0.98 -70.81,-6.95 -77.03,-32.61 -119.2,-52.02 -30.9,17.03 -37.8,32.62 -81.56,45.06 -77.99,22.16 -292.59,5.29 -384.11,9.18 -275.14,11.7 -321.92,-100.2 -397.93,-125.06 -87.72,196.01 -289.58,105.64 -456.48,114.92 -113.11,6.29 -134.26,34.12 -263.25,0.49 -93.68,-24.42 -173.81,-90.87 -203.14,-98.16 -95.76,122.42 -95.19,106.55 -287.87,106.42 -264.06,-0.18 -203.72,-58.93 -270.93,-123.64 -143.93,88.75 -226.73,146.49 -423.76,133.88 -173.55,-11.1 -306.47,-103.88 -380.57,-190.73 -25.76,10.98 -24.03,16.65 -43.86,34.93 -108.22,99.76 -234.42,153.11 -387.95,154.23 -209.83,1.52 -337.81,-96.52 -431.79,-195.63l-42.15 34.72c-109.2,105.21 -231.79,159.32 -394.74,162.89 -14.57,98.2 25.47,229.97 -26.98,321.36 -57.49,100.17 -153.32,91 -264.27,91.13 -82.31,0.09 -147.35,10.71 -207.83,-28.88 -107.78,-70.54 -77.49,-233.09 -77.67,-385.81 -0.19,-158.04 0.03,-316.09 -0.2,-474.13 -0.42,-276.11 72.09,-485.89 323.68,-614.03 105.24,-53.6 266.84,-75.94 395.43,-40.39 204.45,56.52 228.18,152.6 294.73,179.45 64.51,-47.75 92,-87.74 173.29,-130.56 147.52,-77.7 354.78,-73.09 504.45,-4.19 68.74,31.64 117.28,84.09 177.39,132.65 23.44,-11.81 52.31,-45.86 80.2,-69.19 106.28,-88.94 214,-107.53 353.51,-120.7 16.05,-89.6 -15.53,-224.18 17.19,-304.29 40.11,-98.19 99.88,-103.16 218.33,-109.9 -24.35,-34.38 -68.15,-58.99 -99.19,-90.03 -32.84,-32.85 -55.61,-66.24 -87.44,-108.85l-27.24 25.29c-122.79,164.36 -293.71,269.18 -514.63,275.6 -199.37,5.79 -334.42,-55.5 -470.75,-167.11 -41.89,-34.28 -66.48,-69.24 -104.98,-110.02l-65.17 73.55c-22.17,26.61 -42.79,42.39 -69.79,65.94 -244.2,213.01 -703.94,190.58 -905.7,-43.79 -24.77,-28.77 -45.05,-41.75 -69.39,-74.69 -476.57,-644.75 324.43,-1446.69 971.16,-954.35 54.21,41.27 100,110.19 138.89,137.61 22.61,-19.89 24.96,-32.85 45.7,-52.89 158.76,-153.37 302.27,-221.03 547.03,-215.47 -47.55,-568.05 53.36,-518.4 411.55,-519l-1.31 -3.11c-15.01,-9.34 -26.21,-22.96 -32.26,-39.42 -26.35,0.67 -60.27,-7.05 -83.81,-16.69 -132.1,3.58 -242.49,-11.99 -319.12,113.43 -65.67,107.47 -15.97,270.51 -35.43,403.06 -213.94,21.97 -328.4,57.4 -480.78,189.79 -22.77,19.78 -27.62,35.38 -51.57,51.21l-71.5 -64.99c-201.91,-190.95 -510.33,-234.59 -767.94,-139.86 -280.99,103.32 -464.14,385.59 -469.16,686.47 -8.6,515.93 509.75,866.48 955.33,720.26 101.59,-33.34 203.26,-79.13 277.05,-153.24 23.99,-24.09 48.73,-55.72 76.22,-70.29 78.15,46.98 206.57,253.51 567.29,241.81 171,-5.54 317.64,-62.39 440.1,-162.72 40.01,-32.79 60.73,-62.92 101.74,-97.01l57.42 52.87 -78.59 56.54c-97,90.07 -65.16,222.45 -76.35,347.68 -271.83,34.67 -288.77,125.25 -376.61,164.68 -85.62,-46 -154.9,-162.39 -423.33,-163.64 -277.46,-1.29 -380.61,141.67 -431.8,166.89 -126.63,-86.16 -166.67,-135.45 -337.76,-165.67 -283.46,-50.06 -533.61,97.54 -661.12,331.81 -68.71,126.23 -73.43,269.99 -73.34,431.83l0.09 499.53c0.1,144.33 -18.47,307.49 127.11,378.47 86.89,42.38 357.08,39.47 439.81,-3.33 154.99,-80.2 112.88,-236.07 124.41,-381.96 91.16,-17.95 132.65,-20.67 212.91,-59.66 66.26,-32.19 114.16,-83 167.89,-112.23 30.36,19.27 46.07,40.67 81.09,63.61 25.54,16.73 63.79,39.75 97.69,54.58 147.53,64.52 344.57,64.97 493.13,3.95 82.99,-34.08 125.96,-72.82 182.2,-118.41 51.87,18.46 249.57,247.3 606.63,146.95 79.32,-22.29 124.78,-61.53 190.26,-84.47 94.3,67.19 51.56,94.05 287.86,94.18 173.12,0.1 200.8,6.25 304.8,-82.11 59.37,15.99 113.29,61.52 199.14,79.21 117.06,24.12 168.33,-5.99 258.08,-4.08 125.21,2.67 328.3,43.89 431.36,-51.13 22.6,-20.84 16.73,-22.33 42.76,-35.53 148.65,70.7 217.26,103.35 398.31,93.99 71.56,-3.69 151.18,-0.43 228.22,-0.3 36.97,0.06 84.42,2.27 119.95,-3.84 45.59,-7.84 61.47,-26.07 100.18,-31.98 92.56,46.02 173.43,35.61 287.87,35.88 192.04,0.45 146.3,-36.14 237.07,-83.06 98.67,32.9 121.16,90.36 313.4,90.24 75.07,-0.05 106.85,-16.45 180.37,-8.84 60.42,6.26 146.12,1.54 209.19,1.65 332.44,0.58 265.55,-317.67 266.18,-557.51 0.77,-292.58 -95.1,-444.49 -258.34,-567 -86.98,-65.28 -172.29,-101.87 -295.53,-119 -151.26,-21.02 -238.99,16.41 -353.38,56.15 -19.37,-71.42 -5.16,-99.52 -40.56,-178.56 -19.51,-43.55 -62.75,-93.88 -93.56,-120.72 30.25,5.41 52.08,18.36 85.94,26.73 236.47,58.48 474.41,14.23 660.84,-133.73 163.65,-129.87 309.77,-365.63 275.14,-675.62 -29.94,-267.94 -211.27,-467.93 -389.92,-566.66 -170.17,-94.04 -404.56,-102.42 -594.69,-43.15 -70.04,21.84 -112.29,59.13 -168.28,79.99 -13.68,-8.9 -21.32,-14.78 -34.44,-27.16 -45.14,-42.57 -80.43,-43.49 -123.67,-68.76 -2.27,-122.92 -3.97,-208.42 -81.21,-267.94 -94.6,-72.88 -158.28,-56.89 -294.08,-56.92 -166.66,-0.03 -303.2,-2.09 -357.41,163.64 -17.33,52.95 -7.45,113.31 -11.92,170.38l-96.34 59.05c-109.97,-51.94 -166.34,-86.1 -307.23,-92.6 -15.95,2.54 -33.45,1.65 -52.12,-3.66l-120.86 8.33c-16.4,4.79 -29.95,-1.05 -40.58,6.34 -8.35,1.27 -26.01,4.48 -64.75,28.19 -7.17,1.29 -27.23,16.2 -34.08,15.44l-21.33 8.82c-11.24,6.53 -25.56,16.45 -42.56,19.53l-25.83 8.05c-15.96,12.82 0,0 -26.32,19.95 -6.02,5.33 -21.87,22.44 -28.93,27.28 -7.8,10.51 -16.68,20.98 -25.01,30.14l0.77 -0.12c-13.08,17.73 -24.1,24.75 -40.09,43.76 -13.77,16.38 -19.8,30.71 -46.45,42.41z"/>
  <path class="fil13" d="M2864.24 905.57l0.54 -199.88 0.92 -13.54c-1.9,-20.34 -4.01,-30.24 -1.6,-51.79 -29.38,-6.09 -37.68,-24.14 -45.28,-49.82l-9.89 -7.59 -1.08 447.62 41.63 -34.34c16.82,-14.83 24.24,-19.39 42.99,-33.03 27.97,-20.36 61.06,-38.5 97.02,-55 41.76,-19.16 65.68,-28.82 110.44,-41.49 47.08,-13.32 96.03,-13.93 136.44,-25.32 -3.92,-2.51 -7.95,-4.88 -12.1,-7.17 -5.65,-1.99 -10.58,-4.03 -14.59,-6.11 -17.6,-1.35 -33.16,-9.9 -46.89,-20.49l-111.06 16.48c-8.08,2.3 -16.29,3.86 -24.49,4.72 -45.71,22.95 -150.19,73.13 -163,76.75z"/>
 </g>
 <g id="Capa_x0020_3">
  <metadata id="CorelCorpID_2Corel-Layer"/>
  <g>
   <path class="fil14" d="M3172.42 2667.63c77.5,-15.17 218.44,-9.75 298.83,-3.49l-1.04 843.07c-73.86,5.6 -222.69,7.54 -297.2,-4.46l-0.59 -835.12zm3506.83 341.82c8.22,29.42 9.59,31.38 -0.92,56.55 1.14,2.32 2.87,4.94 3.5,6.9l5.99 23.34c0.42,3.31 0.35,21.3 0.47,25.94l1.33 386.08 -283.7 -0.94c-8.98,-9.84 -11.97,-8.8 -16.93,-25.67 -50.79,9.1 -71.23,31.67 -134.99,35.3 -352.97,20.09 -550.82,-407.91 -367.39,-668.15 200.86,-284.96 563.94,-211.3 679.16,-64.12 56.43,72.08 89.74,104.08 113.48,224.77zm-5266.12 -132.71c23.89,-25.09 13.36,-18.48 28.34,-44.01 17.9,-30.51 99.18,-98.12 128.65,-119.06 33.53,-23.82 3.55,-11.32 49.29,-28.11 25.7,-9.44 40.22,-15.23 65.27,-21.71 59,-15.27 160.66,-18.63 224.43,-1.9 28.12,7.37 31.26,13.96 59.77,25.29 54.28,21.56 117.5,58.57 148.18,100.9 25.74,35.52 49.6,52.02 68.9,103.53 11.85,31.62 4.66,30.94 28.96,56.02 31.24,-35.73 -0.38,-8.53 47.24,-35.31 15.02,-75.51 130.27,-177.23 191.85,-212.34 114.28,-65.14 220.24,-50.99 342.84,-16.6l3.21 -444.15 294.97 -1.41c2.77,198.06 -0.89,398.45 -0.8,596.48 0.1,205.5 18.02,375.38 -87.51,519.83 -79.73,109.14 -244.3,188.71 -421.97,162.85 -134.87,-19.62 -300.99,-154.82 -329.53,-276.82l-22.82 -103.64 -40.65 -4.28c2.94,39.61 -3.1,25.49 14.49,52.52 19.6,80.76 -144.77,353 -440.24,332.43 -159.22,-11.08 -269.67,-97.56 -348.96,-232.21 -12.91,-21.92 -16.93,-39.35 -25.46,-68.28l-24.87 -78.27c-38.82,190.3 -185.75,353.35 -362.15,378.17 -94,13.22 -138.05,-10.08 -213.6,-23.85 -17.52,119.11 18.96,330.11 -9.17,441.23l-283.76 -0.92c-11.25,-55.4 -3.77,-526.78 -3.88,-624.62 -0.3,-281.3 -11.15,-527.97 303.28,-640.43 213.43,-76.33 477.9,55.29 544.35,278.56 23.67,79.54 3.16,45.1 26.48,60.1l44.87 -129.99zm3547.93 350.89c9.71,34.27 8.12,106.83 8.36,149 0.03,4.94 -0.13,21.02 0.33,25.03 3.2,27.9 2.78,12.52 5.31,19.05 16.28,-28.24 8.84,-79.3 8.4,-112.21 -0.94,-71.47 -15.45,-354.09 12.05,-384.85 4.73,-5.3 9.66,-10.34 14.59,-15.46 7.39,-38.26 34.21,-88.11 53.6,-111.69 57.27,-69.64 41.21,-48.74 89.59,-80.61 59.88,-39.45 218.26,-69.18 285.03,-48.31 -12.82,-23.11 9.55,-9.42 34.35,-7.15 75.37,-1.77 238.71,-17.49 304.22,5.54l-0.45 851.99c-67.29,1.7 -257.81,7.68 -301.17,-13.06 -20.15,-0.64 -10.84,-6.23 -21.78,3.65l1 -445.57c1.44,-62.79 19.27,-99.84 -56.1,-96.96 -7.53,11.22 -9.12,0.02 -10.28,20.57 -0.05,0.97 0.32,4 0.41,4.88 2.88,30.17 3.1,4.22 5.2,6.11l-29.2 -24.33c-59.07,12.7 -18.28,-0.53 -60.01,38.91l2.46 440.43c1.09,55.55 -2.22,47.96 -17.26,55.85l-21.45 -3.33c-38.79,24.72 -204.7,19.95 -242.4,17.66 -30.5,-1.85 -207,6.03 -226.26,-2.36 -21.01,-9.15 -10.06,-6.43 -21.66,-21.79 -119.83,-19.98 -177.16,-87.19 -228.93,-170.98 -60.33,-97.66 -42.06,-250.46 -43.23,-375.64 -43.26,-0.52 -93.7,-7.81 -127.01,5.56 -9.4,24.54 -6.48,30.25 -0.25,59.92 19.47,92.7 11.12,382.79 11.79,484.95 -51.29,8.34 -106.72,5.67 -160.32,5.87 -25.6,0.1 -50.75,0.64 -76.26,1.04 -72.32,1.15 -57.87,-10.11 -67.67,-23.82 -77.77,10.96 -115.5,62.72 -272.41,13.26 -291.94,-92.02 -453.96,-530.22 -86.24,-786.14 67.8,-47.18 178.17,-64.16 266.07,-58.04 135.29,9.42 285.4,106.67 338.47,222.14l21.06 38.57c17.66,22.09 0.56,1.03 14.71,15.13l8.16 -263.11 128.79 -6.54 0.85 -259.06 293.73 -0.34 2.58 258.14 163.56 1.98 -3.91 286.8 -156.92 2.33c-3.66,23.79 -5.28,190.37 -1.36,210.58 13.96,71.84 83.04,66.56 157.86,66.41zm595.89 -880.12c110.29,-44.66 285.06,56.98 195.8,231.09 -90.16,175.86 -379.61,46.89 -279.78,-160.29 17.1,-35.49 38.51,-52.39 83.98,-70.8zm-2302.74 0.53c89.24,-38.73 188.15,15.02 212.76,98.75 24.33,82.77 -15.78,170.03 -93.91,201.7 -193.55,78.48 -320.26,-213.03 -118.85,-300.45zm-1936.8 -352.92c-11.28,28.62 7.03,29.84 -34.57,22.01 -11.19,1.91 -8.57,1.68 -21.98,6.13 -73.1,24.3 -76.56,43.78 -188.56,51.7 -80.2,5.68 -175.92,-5.22 -240.83,-30.9 -131.32,-51.95 -152.8,-86.68 -237.05,-171.69 -44.84,-45.24 -75.9,-115.22 -94.22,-175.21 -31.88,-104.35 -34.48,-271.92 6.3,-357.7 53.44,-112.37 80.08,-160.98 171.3,-237.28 137.9,-115.31 336.16,-154.25 518.15,-94.65 78.51,25.71 205.68,108.07 243.91,162.41 105.56,150.1 172.7,305.04 107.51,528.45 -47.85,163.97 -139.37,218.48 -229.96,296.73zm4307.15 -672.99c-12.57,-35.25 23.35,-71.48 42.64,-98.02 104.62,-143.97 34.2,-58.97 142.82,-146.35 96.08,-77.3 205.26,-97.15 333.42,-97.58 92.57,-0.32 250.16,37.94 316.62,106.89 1.17,1.21 2.51,3.33 3.66,4.51 40.99,42.5 60.19,50.75 108.39,112.33l36.56 50.13c1.22,2.28 4.23,8.75 5.27,11.06 51.16,112.9 71.41,184.64 62.74,324.89 -2.79,45.12 -15.48,84.41 -29.04,118.95 -15.23,38.83 -21.95,72.43 -49.86,90.86 -13.55,53.26 -110.06,147.95 -151.81,177.06 -76.51,53.36 -143.87,77.74 -236.17,94.99 -99.74,18.64 -208.37,-3.45 -291.1,-35.95 -157.58,-61.91 -134.34,-104.22 -202.05,-121.61 -6.37,-43.3 -107.16,-150.6 -125.27,-257.34 -14.11,-83.15 -22.62,-244.59 24.91,-323.28l8.27 -11.54zm-1845.83 450.05l-10.44 51.3 -28.12 11.77c-33.64,29.15 -90.92,135.17 -215.02,184.7 -15.18,6.06 -28.41,12.3 -45.23,21.85 -48.86,27.77 -209.14,42.73 -292.54,26.78 -148.4,-28.38 -241.55,-84.73 -334.61,-202.59 -144.28,-182.73 -151.71,-420.97 -49.23,-611.32 7.16,-13.3 47.59,-64.03 57.43,-76.52 22.19,-28.18 42.39,-48.72 67.87,-68.21 183.2,-140.19 401.5,-172.89 612.63,-68.04 61.89,30.74 178.79,146.54 207.48,198.35 163.94,296.09 36.39,466.04 29.78,531.93zm694.53 -410.28c-27.82,-9.43 -4.63,-0.64 -30.22,-18.92 -109.87,-78.5 -154.49,28.18 -184.77,42.87 -5.62,107.91 6.87,615.01 -11.35,663l-344.52 -2.81c-10.89,-132.39 -11.28,-644.99 22.51,-743.05 68.63,-199.2 239.79,-320.86 449.01,-319.33 127.48,0.93 222.33,42.05 292.02,102.73 81.27,70.75 115.38,120.64 150.91,231.7 31.67,99 21.51,238.92 22.28,356.34 0.33,51.07 13.74,345.02 -11.13,368.39 -20.46,19.23 -312,8.31 -339.77,6.87 -16.62,-207.14 14.27,-427.67 -14.97,-687.79zm1085.95 -16.38c-25.32,18.61 33.08,12.18 -33.82,15.6l-143.93 0c-9.14,72.5 -3.71,160.11 -4.55,237.45 -0.81,73.85 7.67,48.32 8.96,50.68l-4.57 20.83c-1.21,-2.42 -5.92,2.29 -8.3,4.31 35.84,17.63 30.42,21.34 77.56,32.11 46.66,10.66 68.87,5.18 109.2,11.75l0.9 331.74c-77.59,12 -219.73,-7.72 -285.73,-30.5 -38.3,-13.23 -72.15,-30.98 -100.21,-53.82 -209.06,-170.18 -150.33,-323.94 -167.93,-603.62 -54.48,-27.14 -120.9,-1.98 -170.19,-15 13.13,-71.36 7.86,-90.8 6.67,-172.15 -0.81,-55.16 -2.04,-110.31 -4.31,-162.8l165.89 -1.78 5.23 -324.33c57.09,-14.05 281.46,-6.86 351.26,-4.19 -1.68,72.14 -13.81,266.31 0.7,326.94l196.64 5.8 0.53 330.98zm-2750.28 -762.57l9.89 7.59c-1.35,-4.56 -2.38,-9.27 -3.05,-14.07 -5.99,-10.3 10.22,-58.78 8.35,-73.44 -5.74,-20.46 3.84,-42.5 3.15,-64.55 -5.76,-11.78 -14.17,-80.14 -15.62,-93.23 -20.93,-16.27 -82.44,21.42 -104.89,-6.31 -22.73,-0.78 -49.28,-1.02 -68.04,-3.7 -19.7,0 -33.26,12.56 -47.36,3.79l1.31 3.11c-358.19,0.6 -459.1,-49.05 -411.55,519 -244.76,-5.56 -388.27,62.1 -547.03,215.47 -20.74,20.04 -23.09,33 -45.7,52.89 -38.89,-27.42 -84.68,-96.34 -138.89,-137.61 -646.73,-492.34 -1447.73,309.6 -971.16,954.35 24.34,32.94 44.62,45.92 69.39,74.69 201.76,234.37 661.5,256.8 905.7,43.79 27,-23.55 47.62,-39.33 69.79,-65.94l65.17 -73.55c38.5,40.78 63.09,75.74 104.98,110.02 136.33,111.61 271.38,172.9 470.75,167.11 220.92,-6.42 391.84,-111.24 514.63,-275.6l27.24 -25.29c31.83,42.61 54.6,76 87.44,108.85 31.04,31.04 74.84,55.65 99.19,90.03 -118.45,6.74 -178.22,11.71 -218.33,109.9 -32.72,80.11 -1.14,214.69 -17.19,304.29 -139.51,13.17 -247.23,31.76 -353.51,120.7 -27.89,23.33 -56.76,57.38 -80.2,69.19 -60.11,-48.56 -108.65,-101.01 -177.39,-132.65 -149.67,-68.9 -356.93,-73.51 -504.45,4.19 -81.29,42.82 -108.78,82.81 -173.29,130.56 -66.55,-26.85 -90.28,-122.93 -294.73,-179.45 -128.59,-35.55 -290.19,-13.21 -395.43,40.39 -251.59,128.14 -324.1,337.92 -323.68,614.03 0.23,158.04 0.01,316.09 0.2,474.13 0.18,152.72 -30.11,315.27 77.67,385.81 60.48,39.59 125.52,28.97 207.83,28.88 110.95,-0.13 206.78,9.04 264.27,-91.13 52.45,-91.39 12.41,-223.16 26.98,-321.36 162.95,-3.57 285.54,-57.68 394.74,-162.89l42.15 -34.72c93.98,99.11 221.96,197.15 431.79,195.63 153.53,-1.12 279.73,-54.47 387.95,-154.23 19.83,-18.28 18.1,-23.95 43.86,-34.93 74.1,86.85 207.02,179.63 380.57,190.73 197.03,12.61 279.83,-45.13 423.76,-133.88 67.21,64.71 6.87,123.46 270.93,123.64 192.68,0.13 192.11,16 287.87,-106.42 29.33,7.29 109.46,73.74 203.14,98.16 128.99,33.63 150.14,5.8 263.25,-0.49 166.9,-9.28 368.76,81.09 456.48,-114.92 76.01,24.86 122.79,136.76 397.93,125.06 91.52,-3.89 306.12,12.98 384.11,-9.18 43.76,-12.44 50.66,-28.03 81.56,-45.06 42.17,19.41 48.39,45.07 119.2,52.02 48.92,4.79 117.62,0.99 168.66,0.98 173.13,-0.02 153.3,-24.93 228.6,-107.05 24.89,12.11 34.65,21.81 60.47,38.67 181.93,118.8 297.49,57.61 413.27,60.02 141.8,2.96 420.49,68.55 453.27,-139.48 13.41,-85.11 3.45,-305.8 1.82,-402.86 -2.01,-119.53 -33.24,-229.62 -87.82,-315.69 -119.93,-189.12 -323.89,-280.47 -553.39,-261.88 -58.4,4.73 -112.81,20.62 -162.57,42.37 -47.6,20.81 -95.47,61.1 -134.04,70.19 14.36,-117.03 58.04,-156.11 -12.84,-283.42 -91.29,-163.94 -337.24,-199.96 -466.67,-70.07 -92.73,93.05 -70.86,105.06 -96.91,249.4 -96.23,10.48 -168.1,30.16 -235.85,72.78 -57.66,-42.04 -51.39,-57.08 -136.19,-75.74 2.14,-254.32 -78.24,-260.82 -287.15,-260.82 -233.47,0.01 -279.64,22.02 -285.18,257.35l-112.75 81.59c-101.6,-62.51 -209.39,-93.16 -355.64,-84.59 -63.8,3.74 -119.88,17.6 -173.39,41.39 -25.11,11.17 -53.21,24.11 -73.48,36.46 -30.97,18.88 -26.97,33.81 -62.23,33.12 -0.01,-62.15 80.37,-230.15 -81.97,-360.36 -27.88,-22.36 -69.23,-35.97 -99.75,-60.88 82.72,-42.83 162.9,-16.53 346.93,-179.78l12.9 24.02c48.77,128.74 127.73,133.33 266.5,133.66 386.89,0.94 223.28,-27.52 339.75,-87.64 61.97,116.47 212.54,87.14 362.98,87.58 94.04,0.28 125.54,3.92 183.11,-48.38 49.77,-45.2 54.75,-77.95 58.28,-163.22 24.51,4.34 18.59,8.89 32.62,27.39 67.68,89.28 183.04,146.2 295.17,170.81 62.26,13.66 182.71,23.32 246.01,11.63 96.45,-17.81 94.57,-68.99 141.54,-119.74 25.5,12.53 44.35,32.77 75.45,51.04 319.61,187.7 735.31,98.78 931.18,-213.24 413.54,-658.8 -376.14,-1382.99 -1006.63,-908.68 -31.67,-27.02 -26.44,-57.01 -75.31,-90.19 -54.54,-37.04 -63.44,-22.9 -123.82,-37.06 -0.77,-111.52 17.4,-201.22 -51.46,-270.43 -66.35,-66.68 -155.69,-53.67 -265.87,-53.51 -112.89,0.17 -195.67,-15.84 -261.36,58.02 -73.35,82.47 -44.91,156.29 -50.4,273.13 -97.39,7.42 -98.6,50.82 -145.44,78.25 -142.14,-88.73 -301.9,-143.27 -506.7,-88.52 -92.71,24.79 -146.71,60.32 -214.95,106.51 -30.74,20.8 -19.04,15.72 -44,40.91l-106.42 124.19c-15.11,-11.95 -46.3,-48.9 -57.79,-62.6 -18.44,-21.99 -30.1,-38.64 -53.4,-56.9l-126.53 -93.1 44.66 -1.42c-4.49,-2.38 -8.67,-5.22 -12.46,-8.46 -25.72,6.26 -52.88,-19.05 -68.11,-21.4l-120.75 -55.87c-35.87,-5.49 -184.49,15.55 -230.34,-0.61 4.15,2.29 8.18,4.66 12.1,7.17 -40.41,11.39 -89.36,12 -136.44,25.32 -44.76,12.67 -68.68,22.33 -110.44,41.49 -35.96,16.5 -69.05,34.64 -97.02,55 -18.75,13.64 -26.17,18.2 -42.99,33.03l-41.63 34.34 1.08 -447.62zm-1178.03 792.79c-14.24,-97.82 160.45,-274.77 233.95,-313.28l146.83 -61.33c256.44,-25.8 294.74,75.4 306.21,4.43l2.89 -475.23c-3.82,-41.16 -28.53,-32.81 -6.71,-35.04 23.54,-34.61 248.27,-11.49 355.47,-20.51 0.4,279.5 -8.23,564.52 -1.59,844.05 3.04,127.75 10.12,277.93 -32.78,393.99 -23.56,63.75 -50.92,117.38 -94.81,169.09 -4.78,5.63 -7.03,8.8 -11.33,15 -23.09,33.28 -99.17,79.91 -132.78,102.97 -22.03,15.12 -45.38,21.23 -71.89,29.04 -113.41,33.42 -229.87,60.39 -361.22,8.71 -49.41,-19.44 -103.91,-39.49 -135.32,-68.71l-108.03 -104.45c-27.87,-36.33 -58.96,-82.17 -81.09,-131.14 -26.08,-57.73 -33.65,-104.15 -35.91,-177.41 -1.04,-33.81 0.09,-66.95 3.04,-100.62 8.48,-96.59 14.94,-74.3 25.07,-79.56zm2440.4 -521.77l6.01 -2.01 -6.01 2.01z"/>
  </g>
  <path class="fil13 str0" d="M2475.29 282.92l161.32 1.96 92.9 1.57 68.15 5.26c31.53,6.3 75.51,43.3 75.79,88.77l-3.11 131.4 -4.64 180.27 -25.98 -49.86 -30.79 -59.34 -4.81 -114.51 -3.65 -57.34c-17.46,-46.64 -31.04,-59.09 -101.54,-62.66l-119.73 -6.3 -40.46 -30 -63.45 -29.22z"/>
  <path class="fil13 str0" d="M3254.49 841.66c141.02,2.3 177.89,13.68 213.44,26.23 54.03,19.08 51.41,11.9 143.34,54.09l151.4 32.48c-66.02,-62.8 -141.42,-100.04 -230.53,-133.72 -76.5,-24.51 -115.88,-34.09 -195.85,-36.64 -62.45,-0.25 -158.74,8.58 -209.16,18.61l-99.89 26.11 140.84 24.87 86.41 -12.03z"/>
 </g>
</svg>
